# Blender 4.3.2
# www.blender.org
mtllib chest.mtl
o 胴_立方体.004
v 0.638332 -0.910584 -0.049847
v -0.638332 -0.910584 -0.049847
v 0.638332 -0.910584 -0.102454
v -0.638332 -0.910584 -0.102454
v 0.000000 -0.910584 0.523373
v 0.836497 0.746509 0.003239
v -0.836497 0.746509 0.003239
v 0.836497 0.746509 -0.419296
v -0.836497 0.746509 -0.419296
v -1.004638 -0.096291 -0.623471
v 1.004638 -0.096291 -0.623471
v 1.004638 -0.096291 0.425589
v -1.004638 -0.096291 0.425589
v 0.980845 -0.498212 -0.527834
v -0.980845 -0.494387 0.405735
v -0.980845 -0.498212 -0.527833
v 0.980845 -0.494387 0.405734
v 0.859498 -0.699173 -0.445495
v -0.859497 -0.699173 0.315489
v -0.859498 -0.699173 -0.445495
v 0.859497 -0.699173 0.315489
v 0.471662 1.039963 -0.095012
v -0.471662 1.039963 -0.095012
v 0.471663 1.039963 -0.552605
v -0.471663 1.039963 -0.552605
v -0.705633 0.906601 -0.320168
v 0.705633 0.906601 -0.320168
v 0.705632 0.924960 -0.200355
v -0.705632 0.924960 -0.200355
v -0.000000 -0.910584 -0.650472
v 0.000000 0.746509 0.374987
v -0.000000 0.746509 -0.747033
v 0.000000 -0.096291 0.797337
v -0.000000 -0.096291 -0.951207
v -0.000000 -0.498212 -0.855570
v 0.000000 -0.494387 0.777482
v 0.000000 -0.699173 0.687237
v -0.000000 -0.699173 -0.773231
v -0.000000 1.039963 -0.095012
v -0.000000 1.039963 -0.552605
v 0.000000 0.924960 0.171393
v -0.000000 0.906601 -0.647904
v -0.319166 -0.910584 0.452522
v -0.319166 -0.910584 -0.581455
v -0.418248 0.746509 0.374987
v -0.502319 -0.096291 0.797337
v -0.490422 -0.494387 0.777482
v -0.429749 -0.699173 0.687237
v -0.235831 1.039963 -0.095012
v -0.352816 0.924960 0.171393
v -0.418249 0.746509 -0.747033
v -0.502319 -0.096291 -0.951207
v -0.490422 -0.498212 -0.855570
v -0.429749 -0.699173 -0.773231
v -0.235831 1.039963 -0.552605
v -0.352816 0.906601 -0.647904
v 0.319166 -0.910584 0.452522
v 0.319166 -0.910584 -0.581455
v 0.418249 0.746509 -0.747033
v 0.502319 -0.096291 -0.951207
v 0.490422 -0.498212 -0.855570
v 0.429749 -0.699173 -0.773231
v 0.235831 1.039963 -0.552605
v 0.352816 0.906601 -0.647904
v 0.418249 0.746509 0.374987
v 0.502319 -0.096291 0.797337
v 0.490422 -0.494387 0.777482
v 0.429749 -0.699173 0.687237
v 0.235831 1.039963 -0.095012
v 0.352816 0.924960 0.171393
v -0.920568 0.568248 -0.452569
v 0.920568 0.568248 0.145600
v 0.920568 0.568248 -0.452569
v -0.920568 0.568248 0.145600
v 0.000000 0.568248 0.517348
v -0.000000 0.568248 -0.780306
v -0.460284 0.568248 0.517348
v -0.460284 0.568248 -0.780306
v 0.460284 0.568248 -0.780306
v 0.460284 0.568248 0.517348
v 1.045865 -0.483043 0.432686
v 1.045865 -0.110681 0.451996
v -1.045865 -0.483043 0.432686
v -1.045865 -0.110681 0.451996
v 1.045865 -0.483043 -0.548874
v 1.045865 -0.110681 -0.656456
v -1.045865 -0.483043 -0.548874
v -1.045865 -0.110681 -0.656456
v 0.000000 -0.483043 0.818790
v 0.000000 -0.110681 0.838100
v -0.000000 -0.483043 -0.892078
v -0.000000 -0.110681 -0.999660
v 0.522932 -0.483043 0.818790
v 0.522932 -0.110681 -0.999660
v 0.522932 -0.110681 0.838100
v 0.522932 -0.483043 -0.892078
v -0.522932 -0.110681 0.838100
v -0.522932 -0.483043 -0.892078
v -0.522932 -0.483043 0.818790
v -0.522932 -0.110681 -0.999660
v 0.300002 -0.520499 0.899410
v 0.300002 -0.072537 0.899410
v -0.300002 -0.520499 0.899410
v -0.300002 -0.072537 0.899410
v 0.300002 -0.520499 0.638619
v 0.300002 -0.072537 0.638619
v -0.300002 -0.520499 0.638619
v -0.300002 -0.072537 0.638619
v 0.211205 -0.454203 0.899212
v 0.211205 -0.138832 0.899212
v -0.211205 -0.454203 0.899212
v -0.211205 -0.138832 0.899212
v 0.211205 -0.454203 0.799999
v 0.211205 -0.138832 0.799999
v -0.211205 -0.454203 0.799999
v -0.211205 -0.138832 0.799999
vn -0.0000 -1.0000 -0.0000
vn -0.5920 0.2806 -0.7555
vn -0.0000 0.7520 0.6591
vn -0.0000 0.5264 -0.8502
vn -0.0000 0.5814 -0.8136
vn 0.4980 0.6098 0.6166
vn 0.9045 0.4266 -0.0000
vn -0.9045 0.4266 -0.0000
vn -0.9982 -0.0595 0.0001
vn -0.9982 -0.0595 0.0002
vn -0.9983 -0.0591 -0.0000
vn 0.9982 -0.0597 0.0002
vn 0.9982 -0.0595 0.0002
vn 0.6031 -0.0577 0.7956
vn -0.5342 -0.2106 -0.8187
vn -0.5405 -0.4535 -0.7087
vn 0.5787 -0.4663 0.6690
vn 0.8570 -0.5153 0.0005
vn 0.8591 -0.5118 0.0017
vn 0.8599 -0.5105 0.0021
vn -0.8570 -0.5153 0.0005
vn -0.8591 -0.5118 0.0017
vn -0.8560 -0.5169 -0.0000
vn -0.6910 -0.7229 -0.0000
vn 0.6910 -0.7229 -0.0000
vn 0.4226 -0.7634 0.4885
vn -0.4206 -0.7203 -0.5515
vn -0.0000 1.0000 -0.0000
vn -0.0000 0.9181 0.3963
vn 0.3854 0.9121 -0.1398
vn -0.4952 0.8688 -0.0000
vn -0.7383 0.6667 -0.1022
vn 0.8064 0.5914 -0.0000
vn 0.4477 0.7388 0.5037
vn -0.5492 0.5906 -0.5912
vn -0.0000 -0.6719 -0.7407
vn -0.0000 -0.7430 0.6693
vn -0.0000 -0.4033 0.9151
vn -0.0000 -0.3791 -0.9253
vn -0.0000 -0.2315 -0.9728
vn -0.0000 -0.0498 0.9988
vn -0.0000 0.6240 0.7814
vn -0.0000 0.1835 -0.9830
vn -0.4913 0.6731 0.5527
vn -0.5932 -0.0754 0.8015
vn -0.4928 -0.5785 0.6501
vn -0.4082 -0.8753 0.2594
vn -0.5540 0.6455 0.5258
vn -0.1838 -0.4936 -0.8500
vn -0.4386 0.7965 0.4162
vn 0.5337 0.3916 -0.7495
vn 0.6783 -0.0827 -0.7302
vn 0.5414 -0.2248 -0.8101
vn 0.4603 -0.5601 -0.6888
vn 0.4093 -0.8707 -0.2727
vn 0.1728 -0.6034 0.7785
vn 0.4380 0.7041 -0.5589
vn -0.0000 0.3883 0.9215
vn 0.5581 0.2722 -0.7838
vn -0.0000 0.2491 -0.9685
vn -0.5819 0.3772 0.7205
vn -0.9921 0.1255 -0.0000
vn 0.9921 0.1255 -0.0000
vn 0.5568 0.3522 0.7523
vn -0.5301 0.2425 -0.8125
vn -0.5935 -0.0417 0.8038
vn -1.0000 -0.0000 -0.0000
vn 0.5334 -0.2348 -0.8127
vn 1.0000 -0.0000 -0.0000
vn -0.0000 -0.2776 -0.9607
vn -0.0000 -0.0518 0.9987
vn 0.5935 -0.0417 0.8038
vn -0.5334 -0.2348 -0.8127
vn 0.0023 -0.0002 1.0000
vn 0.0021 -0.0001 1.0000
vn 0.0001 -0.0028 1.0000
vn -0.0000 -0.0000 -1.0000
vn -0.0002 0.0027 1.0000
vn -0.0010 -0.0016 1.0000
vn -0.0010 0.0016 1.0000
vn -0.0002 -0.0027 1.0000
vn -0.0000 0.0030 1.0000
vn -0.0000 -0.0000 1.0000
vn -0.5337 0.3916 -0.7495
vn -0.6783 -0.0827 -0.7302
vn 0.4913 0.6731 0.5527
vn -0.9982 -0.0597 0.0002
vn 0.9983 -0.0591 -0.0000
vn 0.5932 -0.0754 0.8015
vn -0.5414 -0.2248 -0.8101
vn -0.4603 -0.5601 -0.6888
vn 0.4928 -0.5785 0.6501
vn 0.8560 -0.5169 -0.0000
vn -0.8599 -0.5105 0.0021
vn 0.4082 -0.8753 0.2594
vn -0.4093 -0.8707 -0.2727
vn 0.5540 0.6455 0.5258
vn 0.4952 0.8688 -0.0000
vn -0.3854 0.9121 -0.1398
vn -0.8064 0.5914 -0.0000
vn 0.7383 0.6667 -0.1022
vn 0.4386 0.7965 0.4162
vn -0.4380 0.7041 -0.5589
vn 0.1838 -0.4936 -0.8500
vn -0.1728 -0.6034 0.7785
vn -0.4980 0.6098 0.6166
vn -0.6031 -0.0577 0.7956
vn -0.5787 -0.4663 0.6690
vn -0.4226 -0.7634 0.4885
vn -0.4477 0.7388 0.5037
vn 0.5920 0.2806 -0.7555
vn 0.5342 -0.2106 -0.8187
vn 0.5405 -0.4535 -0.7087
vn 0.4206 -0.7203 -0.5515
vn 0.5492 0.5906 -0.5912
vn 0.5301 0.2425 -0.8125
vn -0.5568 0.3522 0.7523
vn 0.5819 0.3772 0.7205
vn -0.5581 0.2722 -0.7838
vt 0.299762 0.609679
vt 0.303840 0.607364
vt 0.307694 0.609679
vt 0.088311 0.832142
vt 0.089475 0.829414
vt 0.089591 0.832447
vt 0.173983 0.716751
vt 0.175612 0.719310
vt 0.173983 0.719784
vt 0.089591 0.835480
vt 0.090715 0.838039
vt 0.089591 0.838513
vt 0.090715 0.832921
vt 0.091648 0.832059
vt 0.091648 0.833770
vt 0.175677 0.710075
vt 0.173983 0.713718
vt 0.172824 0.713413
vt 0.174647 0.780038
vt 0.178149 0.778747
vt 0.179243 0.780038
vt 0.121717 0.777944
vt 0.118214 0.776653
vt 0.121461 0.776653
vt 0.122295 0.785677
vt 0.114969 0.782762
vt 0.123030 0.782762
vt 0.174068 0.787770
vt 0.181394 0.784855
vt 0.181242 0.787743
vt 0.174050 0.733688
vt 0.176995 0.737158
vt 0.174105 0.737244
vt 0.080612 0.831923
vt 0.083441 0.828194
vt 0.083557 0.831837
vt 0.079011 0.829247
vt 0.079127 0.832363
vt 0.172552 0.734568
vt 0.172607 0.737684
vt 0.180548 0.789230
vt 0.115815 0.787137
vt 0.121662 0.787137
vt 0.303840 0.616623
vt 0.300894 0.618226
vt 0.303437 0.616623
vt 0.300894 0.605760
vt 0.306732 0.605760
vt 0.309583 0.608877
vt 0.299762 0.614308
vt 0.298380 0.615110
vt 0.181211 0.715041
vt 0.177700 0.713331
vt 0.181211 0.713331
vt 0.175612 0.714193
vt 0.177700 0.715041
vt 0.179377 0.711634
vt 0.178465 0.711634
vt 0.179377 0.721869
vt 0.177700 0.720172
vt 0.181211 0.720172
vt 0.119778 0.775362
vt 0.120699 0.775495
vt 0.174902 0.778747
vt 0.176585 0.777456
vt 0.176836 0.710685
vt 0.137995 0.672361
vt 0.136849 0.676018
vt 0.137152 0.672443
vt 0.175612 0.716751
vt 0.177700 0.718462
vt 0.181211 0.716751
vt 0.181211 0.718462
vt 0.077528 0.837795
vt 0.079127 0.835480
vt 0.079127 0.838596
vt 0.307694 0.614308
vt 0.309583 0.611993
vt 0.309583 0.615110
vt 0.172607 0.743917
vt 0.174105 0.740801
vt 0.174105 0.744357
vt 0.080612 0.835480
vt 0.080612 0.839036
vt 0.083557 0.835480
vt 0.083557 0.839123
vt 0.176995 0.740801
vt 0.176995 0.744444
vt 0.181771 0.740801
vt 0.183042 0.743834
vt 0.181771 0.744139
vt 0.090715 0.835480
vt 0.091648 0.837190
vt 0.088311 0.835480
vt 0.088311 0.838818
vt 0.299233 0.611993
vt 0.308237 0.611993
vt 0.175677 0.723427
vt 0.176836 0.722818
vt 0.174050 0.747914
vt 0.176939 0.748086
vt 0.172552 0.747034
vt 0.306732 0.618226
vt 0.178465 0.721869
vt 0.077528 0.833165
vt 0.077552 0.835480
vt 0.091648 0.835480
vt 0.089475 0.841546
vt 0.088195 0.842156
vt 0.091648 0.838900
vt 0.090599 0.840597
vt 0.083441 0.842766
vt 0.080496 0.842593
vt 0.079011 0.841713
vt 0.303437 0.607364
vt 0.177700 0.716751
vt 0.172607 0.740801
vt 0.183042 0.737768
vt 0.183042 0.740801
vt 0.167841 0.676776
vt 0.166695 0.673119
vt 0.167841 0.672836
vt 0.181771 0.737463
vt 0.181716 0.747477
vt 0.117120 0.777944
vt 0.173333 0.784855
vt 0.176939 0.733515
vt 0.688356 0.569956
vt 0.691001 0.573748
vt 0.688298 0.573748
vt 0.746506 0.544299
vt 0.743806 0.551990
vt 0.743806 0.544448
vt 0.685563 0.569956
vt 0.688177 0.573748
vt 0.685441 0.573748
vt 0.748641 0.479323
vt 0.751341 0.487014
vt 0.748641 0.486865
vt 0.835695 0.651187
vt 0.845857 0.647395
vt 0.848819 0.651187
vt 0.648000 0.587056
vt 0.636860 0.583263
vt 0.645366 0.583263
vt 0.633897 0.594640
vt 0.648000 0.590848
vt 0.648000 0.594640
vt 0.835695 0.658772
vt 0.848819 0.654980
vt 0.848819 0.658772
vt 0.688298 0.562371
vt 0.685563 0.566164
vt 0.685563 0.562371
vt 0.691059 0.562371
vt 0.688356 0.566164
vt 0.688356 0.562371
vt 0.691001 0.558579
vt 0.688298 0.558579
vt 0.633897 0.590848
vt 0.835695 0.654980
vt 0.688298 0.566164
vt 0.688177 0.558579
vt 0.685441 0.558579
vt 0.845857 0.662564
vt 0.636860 0.598433
vt 0.645366 0.598433
vt 0.691059 0.566164
vt 0.173177 0.413478
vt 0.170409 0.414122
vt 0.169929 0.413478
vt 0.197307 0.416727
vt 0.195303 0.413478
vt 0.197307 0.413478
vt 0.112719 0.676712
vt 0.115964 0.672361
vt 0.115964 0.676712
vt 0.223565 0.413953
vt 0.225569 0.417202
vt 0.223565 0.417202
vt 0.180423 0.413478
vt 0.178423 0.417829
vt 0.178423 0.413478
vt 0.176422 0.417829
vt 0.176422 0.413478
vt 0.228909 0.411158
vt 0.229671 0.414221
vt 0.228909 0.414221
vt 0.173177 0.417829
vt 0.170409 0.417185
vt 0.172696 0.417185
vt 0.169929 0.417829
vt 0.172696 0.414122
vt 0.132559 0.675424
vt 0.134845 0.672361
vt 0.134845 0.675424
vt 0.229671 0.411158
vt 0.228909 0.408095
vt 0.229671 0.408095
vt 0.213131 0.416710
vt 0.212368 0.414423
vt 0.213131 0.414423
vt 0.229672 0.416508
vt 0.229672 0.414221
vt 0.088195 0.828804
vt 0.090599 0.830363
vt 0.115122 0.785649
vt 0.080496 0.828367
vt 0.174701 0.789230
vt 0.175664 0.777589
vt 0.137995 0.676301
vt 0.172824 0.720089
vt 0.298380 0.608877
vt 0.166998 0.676694
vt 0.181716 0.734125
vt 0.691059 0.569956
vt 0.746506 0.552817
vt 0.688298 0.569956
vt 0.751341 0.478496
vt 0.838327 0.647395
vt 0.633897 0.587056
vt 0.838327 0.662564
vt 0.195303 0.416727
vt 0.112719 0.672361
vt 0.225569 0.413953
vt 0.180423 0.417829
vt 0.132559 0.672361
vt 0.212368 0.416710
vt 0.228909 0.416508
s 1
usemtl マテリアル.004
f 58/1/1 1/2/1 57/3/1
f 78/4/2 9/5/2 51/6/2
f 31/7/3 50/8/3 45/9/3
f 32/10/4 64/11/4 59/12/4
f 56/13/5 25/14/5 55/15/5
f 72/16/6 65/17/6 80/18/6
f 73/19/7 6/20/7 72/21/7
f 71/22/8 7/23/8 9/24/8
f 16/25/9 13/26/10 10/27/11
f 14/28/12 12/29/13 17/30/12
f 17/31/14 66/32/14 67/33/14
f 53/34/15 10/35/15 52/36/15
f 20/37/16 53/34/16 54/38/16
f 21/39/17 67/33/17 68/40/17
f 21/41/18 14/28/19 17/30/20
f 19/42/21 16/25/22 20/43/23
f 2/44/24 20/45/24 4/46/24
f 1/2/25 18/47/25 21/48/25
f 57/3/26 21/48/26 68/49/26
f 44/50/27 20/45/27 54/51/27
f 63/52/28 22/53/28 24/54/28
f 70/55/29 22/53/29 69/56/29
f 27/57/30 22/53/30 28/58/30
f 26/59/31 23/60/31 25/61/31
f 9/24/32 29/62/32 26/63/32
f 8/64/33 28/65/33 6/20/33
f 6/66/34 70/55/34 65/17/34
f 51/67/35 26/68/35 56/69/35
f 41/70/29 49/71/29 50/8/29
f 49/71/28 40/72/28 55/73/28
f 58/74/36 38/75/36 62/76/36
f 43/77/37 37/78/37 48/79/37
f 48/80/38 36/81/38 47/82/38
f 62/76/39 35/83/39 61/84/39
f 61/84/40 34/85/40 60/86/40
f 47/82/41 33/87/41 46/88/41
f 75/89/42 45/90/42 77/91/42
f 42/92/5 63/93/5 64/11/5
f 76/94/43 59/12/43 79/95/43
f 43/77/1 30/96/1 5/97/1
f 2/44/1 44/50/1 43/77/1
f 74/98/44 45/9/44 7/99/44
f 15/100/45 46/88/45 13/101/45
f 19/102/46 47/82/46 15/100/46
f 43/77/47 19/103/47 2/44/47
f 23/60/28 55/73/28 25/61/28
f 50/8/48 23/60/48 29/104/48
f 32/10/4 56/13/4 42/92/4
f 44/105/49 38/75/49 30/106/49
f 54/38/39 35/83/39 38/75/39
f 53/34/40 34/85/40 35/83/40
f 42/92/5 55/15/5 40/107/5
f 7/99/50 50/8/50 29/104/50
f 76/94/43 51/6/43 32/10/43
f 79/95/51 8/108/51 73/109/51
f 64/11/52 24/110/52 27/111/52
f 61/84/53 11/112/53 14/113/53
f 18/114/54 61/84/54 14/113/54
f 58/1/55 18/47/55 3/115/55
f 31/7/3 70/55/3 41/70/3
f 41/70/29 69/56/29 39/116/29
f 40/72/28 69/56/28 63/52/28
f 57/3/56 37/78/56 5/97/56
f 68/40/38 36/81/38 37/117/38
f 67/33/41 33/87/41 36/81/41
f 75/89/42 65/118/42 31/119/42
f 59/120/57 27/121/57 8/122/57
f 30/96/1 57/3/1 5/97/1
f 33/87/58 80/123/58 75/89/58
f 11/112/59 79/95/59 73/109/59
f 34/85/60 78/4/60 76/94/60
f 13/101/61 77/91/61 74/124/61
f 34/85/60 79/95/60 60/86/60
f 33/87/58 77/91/58 46/88/58
f 10/27/62 74/125/62 71/22/62
f 11/126/63 72/21/63 12/29/63
f 12/127/64 80/123/64 66/32/64
f 10/35/65 78/4/65 52/36/65
f 99/128/66 84/129/66 83/130/66
f 84/131/67 87/132/67 83/133/67
f 96/134/68 86/135/68 85/136/68
f 85/137/69 82/138/69 81/139/69
f 96/140/1 81/141/1 93/142/1
f 94/143/28 82/144/28 86/145/28
f 97/146/28 92/147/28 100/148/28
f 98/149/1 89/150/1 99/151/1
f 100/152/70 91/153/70 98/154/70
f 95/155/71 89/156/71 93/157/71
f 82/158/72 93/157/72 81/159/72
f 90/160/28 94/143/28 92/147/28
f 91/161/1 93/142/1 89/150/1
f 92/162/70 96/134/70 91/153/70
f 88/163/73 98/154/73 87/164/73
f 83/165/1 98/149/1 99/151/1
f 84/166/28 100/148/28 88/167/28
f 90/168/71 99/128/71 89/156/71
f 103/169/74 112/170/75 104/171/76
f 104/172/67 107/173/67 103/174/67
f 108/175/77 105/176/77 107/177/77
f 106/178/69 101/179/69 105/180/69
f 107/181/1 101/182/1 103/183/1
f 104/183/28 106/184/28 108/185/28
f 112/186/1 114/187/1 110/188/1
f 101/189/78 110/190/79 109/191/80
f 104/171/76 110/190/79 102/192/81
f 101/189/78 111/193/82 103/169/74
f 114/194/83 115/195/83 113/196/83
f 109/197/28 115/198/28 111/199/28
f 111/200/69 116/201/69 112/202/69
f 110/203/67 113/188/67 109/204/67
f 58/1/1 3/115/1 1/2/1
f 78/4/84 71/205/84 9/5/84
f 31/7/3 41/70/3 50/8/3
f 32/10/4 42/92/4 64/11/4
f 56/13/85 26/206/85 25/14/85
f 72/16/86 6/66/86 65/17/86
f 73/19/7 8/64/7 6/20/7
f 71/22/8 74/125/8 7/23/8
f 16/25/9 15/207/87 13/26/10
f 14/28/12 11/126/88 12/29/13
f 17/31/89 12/127/89 66/32/89
f 53/34/90 16/208/90 10/35/90
f 20/37/91 16/208/91 53/34/91
f 21/39/92 17/31/92 67/33/92
f 21/41/18 18/209/93 14/28/19
f 19/42/21 15/207/94 16/25/22
f 2/44/24 19/103/24 20/45/24
f 1/2/25 3/115/25 18/47/25
f 57/3/95 1/2/95 21/48/95
f 44/50/96 4/46/96 20/45/96
f 63/52/28 69/56/28 22/53/28
f 70/55/97 28/58/97 22/53/97
f 27/57/98 24/54/98 22/53/98
f 26/59/99 29/104/99 23/60/99
f 9/24/100 7/23/100 29/62/100
f 8/64/101 27/210/101 28/65/101
f 6/66/102 28/58/102 70/55/102
f 51/67/103 9/211/103 26/68/103
f 41/70/29 39/116/29 49/71/29
f 49/71/28 39/116/28 40/72/28
f 58/74/104 30/106/104 38/75/104
f 43/77/105 5/97/105 37/78/105
f 48/80/38 37/117/38 36/81/38
f 62/76/39 38/75/39 35/83/39
f 61/84/40 35/83/40 34/85/40
f 47/82/41 36/81/41 33/87/41
f 75/89/42 31/119/42 45/90/42
f 42/92/5 40/107/5 63/93/5
f 76/94/43 32/10/43 59/12/43
f 43/77/1 44/50/1 30/96/1
f 2/44/1 4/46/1 44/50/1
f 74/98/106 77/212/106 45/9/106
f 15/100/107 47/82/107 46/88/107
f 19/102/108 48/80/108 47/82/108
f 43/77/109 48/79/109 19/103/109
f 23/60/28 49/71/28 55/73/28
f 50/8/29 49/71/29 23/60/29
f 32/10/4 51/6/4 56/13/4
f 44/105/36 54/38/36 38/75/36
f 54/38/39 53/34/39 35/83/39
f 53/34/40 52/36/40 34/85/40
f 42/92/5 56/13/5 55/15/5
f 7/99/110 45/9/110 50/8/110
f 76/94/43 78/4/43 51/6/43
f 79/95/111 59/12/111 8/108/111
f 64/11/5 63/93/5 24/110/5
f 61/84/112 60/86/112 11/112/112
f 18/114/113 62/76/113 61/84/113
f 58/1/114 62/213/114 18/47/114
f 31/7/3 65/17/3 70/55/3
f 41/70/29 70/55/29 69/56/29
f 40/72/28 39/116/28 69/56/28
f 57/3/37 68/49/37 37/78/37
f 68/40/38 67/33/38 36/81/38
f 67/33/41 66/32/41 33/87/41
f 75/89/42 80/123/42 65/118/42
f 59/120/115 64/214/115 27/121/115
f 30/96/1 58/1/1 57/3/1
f 33/87/58 66/32/58 80/123/58
f 11/112/116 60/86/116 79/95/116
f 34/85/60 52/36/60 78/4/60
f 13/101/117 46/88/117 77/91/117
f 34/85/60 76/94/60 79/95/60
f 33/87/58 75/89/58 77/91/58
f 10/27/62 13/26/62 74/125/62
f 11/126/63 73/19/63 72/21/63
f 12/127/118 72/215/118 80/123/118
f 10/35/119 71/205/119 78/4/119
f 99/128/66 97/216/66 84/129/66
f 84/131/67 88/217/67 87/132/67
f 96/134/68 94/218/68 86/135/68
f 85/137/69 86/219/69 82/138/69
f 96/140/1 85/220/1 81/141/1
f 94/143/28 95/221/28 82/144/28
f 97/146/28 90/160/28 92/147/28
f 98/149/1 91/161/1 89/150/1
f 100/152/70 92/162/70 91/153/70
f 95/155/71 90/168/71 89/156/71
f 82/158/72 95/155/72 93/157/72
f 90/160/28 95/221/28 94/143/28
f 91/161/1 96/140/1 93/142/1
f 92/162/70 94/218/70 96/134/70
f 88/163/73 100/152/73 98/154/73
f 83/165/1 87/222/1 98/149/1
f 84/166/28 97/146/28 100/148/28
f 90/168/71 97/216/71 99/128/71
f 103/169/74 111/193/82 112/170/75
f 104/172/67 108/223/67 107/173/67
f 108/175/77 106/224/77 105/176/77
f 106/178/69 102/225/69 101/179/69
f 107/181/1 105/226/1 101/182/1
f 104/183/28 102/182/28 106/184/28
f 112/186/1 116/197/1 114/187/1
f 101/189/78 102/192/81 110/190/79
f 104/171/76 112/170/75 110/190/79
f 101/189/78 109/191/80 111/193/82
f 114/194/83 116/227/83 115/195/83
f 109/197/28 113/186/28 115/198/28
f 111/200/69 115/228/69 116/201/69
f 110/203/67 114/229/67 113/188/67
