# Blender 4.3.2
# www.blender.org
mtllib footRight.mtl
o 足_右_立方体.001
v -0.101441 -0.459417 0.493067
v -0.207206 -0.459417 -1.151541
v 0.137491 -0.459417 0.493067
v 0.074604 -0.459417 -1.151541
v -0.101441 -0.616706 0.493067
v -0.207206 -0.616706 -1.151541
v 0.137491 -0.616706 0.493067
v 0.074604 -0.616706 -1.151541
v -0.364902 -0.459417 -0.323295
v 0.414769 -0.459417 -0.323295
v 0.414769 -0.616706 -0.323295
v -0.364902 -0.616706 -0.323295
v -0.438748 -0.459417 -0.748114
v 0.414769 -0.459417 -0.748113
v 0.414769 -0.616706 -0.748113
v -0.438748 -0.616706 -0.748114
v 0.309956 -0.459417 0.101524
v 0.309956 -0.616706 0.101524
v -0.248281 -0.616706 0.101524
v -0.248281 -0.459417 0.101524
v 0.436208 -0.459417 -0.535704
v 0.436208 -0.616706 -0.535704
v -0.417309 -0.616706 -0.535704
v -0.417309 -0.459417 -0.535704
v -0.277003 -0.459417 -0.035620
v 0.326631 -0.459417 -0.035620
v 0.326631 -0.616706 -0.035620
v -0.277003 -0.616706 -0.035620
v -0.406432 -0.459417 -0.953837
v 0.319915 -0.459417 -0.953837
v 0.319915 -0.616706 -0.953837
v -0.406432 -0.616706 -0.953837
v -0.351622 -0.459417 -1.052689
v 0.230574 -0.459417 -1.052689
v 0.230574 -0.616706 -1.052689
v -0.351622 -0.616706 -1.052689
v 0.298164 -0.459417 0.297295
v 0.298164 -0.616706 0.297295
v -0.238273 -0.616706 0.297295
v -0.238273 -0.459417 0.297295
v 0.244701 -0.459417 0.393553
v 0.244701 -0.616706 0.393553
v -0.206928 -0.616706 0.393553
v -0.206928 -0.459417 0.393553
v 0.204881 -0.459417 0.443310
v 0.204881 -0.616706 0.443310
v -0.159699 -0.616706 0.443310
v -0.159699 -0.459417 0.443310
v 0.018025 -0.459417 0.525924
v -0.066301 -0.459417 -1.176184
v 0.018025 -0.616706 0.522777
v -0.066301 -0.616706 -1.175309
v 0.024933 -0.616706 -0.323295
v -0.087687 -0.210568 0.470237
v -0.011989 -0.616706 -0.748114
v 0.360626 -0.210569 -0.238749
v 0.379245 -0.210569 -0.423221
v 0.030838 -0.616706 0.101524
v 0.269599 -0.210569 0.130193
v 0.009450 -0.616706 -0.535704
v 0.284081 -0.210569 0.011088
v 0.024814 -0.616706 -0.035620
v -0.043258 -0.616706 -0.953837
v 0.360626 -0.210569 -0.607692
v -0.060524 -0.616706 -1.052689
v 0.278248 -0.210569 -0.786357
v 0.029945 -0.616706 0.297295
v -0.215213 -0.210569 0.130193
v -0.352563 -0.210569 -0.786357
v 0.018886 -0.616706 0.393553
v 0.022591 -0.616706 0.443310
v -0.304962 -0.210569 -0.872207
v -0.056151 0.038280 0.433415
v -0.074431 0.038280 -0.122147
v 0.081093 0.038280 0.428171
v 0.000060 0.038280 -0.131941
v -0.268229 0.038280 0.058242
v 0.269679 0.038280 0.066321
v -0.187573 0.038280 -0.063743
v 0.163584 0.038280 -0.077824
v 0.255502 0.038280 0.276524
v -0.236166 0.038280 0.311432
v 0.231753 0.038280 -0.011702
v -0.225801 0.038280 -0.018555
v -0.268312 0.038280 0.243642
v 0.277884 0.038280 0.215490
v -0.151193 0.038280 -0.089033
v 0.111597 0.038280 -0.107850
v -0.115417 0.038280 -0.105967
v 0.049419 0.038280 -0.127062
v 0.225758 0.038280 0.329655
v -0.202911 0.038280 0.356808
v 0.192051 0.038280 0.365944
v -0.145104 0.038280 0.397903
v 0.149289 0.038280 0.397600
v -0.094504 0.038280 0.417504
v 0.007046 0.038280 0.438949
v -0.041330 0.038280 -0.128785
v -0.380628 -0.210569 -0.607692
v -0.138283 -0.210568 0.427024
v -0.240157 -0.210569 0.011088
v -0.179300 -0.210568 0.383812
v -0.206522 -0.210568 0.300215
v -0.179541 -0.210569 -0.958056
v 0.016065 -0.210568 0.498772
v 0.119818 -0.210568 0.470237
v 0.178344 -0.210568 0.427025
v -0.057170 -0.210569 -0.979458
v -0.316496 -0.210569 -0.238749
v -0.362009 -0.210569 -0.423221
v 0.259358 -0.210568 0.300215
v 0.212927 -0.210568 0.383812
v 0.065202 -0.210569 -0.958056
v 0.200658 -0.210569 -0.872207
v -0.048366 0.179330 0.408130
v -0.068464 0.179330 -0.099659
v 0.074291 0.179330 0.403991
v -0.000089 0.179330 -0.108626
v -0.246351 0.179330 0.065506
v 0.248762 0.179330 0.071706
v -0.172318 0.179330 -0.046183
v 0.151154 0.179330 -0.058400
v 0.234382 0.179330 0.265365
v -0.216921 0.179330 0.297326
v 0.213968 0.179330 0.001847
v -0.207407 0.179330 -0.004809
v -0.246427 0.179330 0.235258
v 0.254926 0.179330 0.209482
v -0.138924 0.179330 -0.069339
v 0.097013 0.179330 -0.090493
v -0.106086 0.179330 -0.084844
v 0.045218 0.179330 -0.104158
v 0.206250 0.179330 0.311472
v -0.186705 0.179330 0.333431
v 0.178630 0.179330 0.342711
v -0.135271 0.179330 0.373339
v 0.138548 0.179330 0.374179
v -0.088272 0.179330 0.394873
v 0.006324 0.179330 0.413197
v -0.038080 0.179330 -0.105736
v -0.176618 0.396215 0.093829
v -0.048398 0.396215 -0.013858
v -0.075515 0.396215 -0.004199
v 0.129708 0.396215 0.274566
v -0.026497 0.396215 -0.017821
v -0.062675 0.396215 0.308575
v 0.054501 0.396215 0.314520
v 0.100817 0.396215 0.295083
v -0.099185 0.396215 0.005910
v -0.123255 0.396215 0.021007
v -0.320953 -0.459417 -0.179457
v 0.370700 -0.459417 -0.179457
v 0.370700 -0.616706 -0.179457
v -0.320953 -0.616706 -0.179457
v 0.024874 -0.616706 -0.179457
v -0.281877 0.038280 0.156525
v 0.282990 0.038280 0.155653
v -0.278327 -0.210569 -0.113831
v 0.322353 -0.210569 -0.113831
v -0.258879 0.179330 0.155494
v 0.260086 0.179330 0.155494
v 0.070878 0.396215 -0.007883
v -0.005003 0.440560 0.201988
v -0.007753 0.440560 0.094430
v 0.011777 0.440560 0.201112
v 0.001601 0.440560 0.092531
v -0.032089 0.440560 0.129415
v 0.035646 0.440560 0.130728
v -0.021960 0.440560 0.105757
v 0.022292 0.440560 0.103170
v 0.033679 0.440560 0.171749
v -0.028062 0.440560 0.178518
v 0.030886 0.440560 0.115931
v -0.026761 0.440560 0.114521
v -0.032099 0.440560 0.165371
v 0.036489 0.440560 0.159912
v -0.017392 0.440560 0.100853
v 0.014886 0.440560 0.096372
v -0.012900 0.440560 0.097568
v 0.007800 0.440560 0.093477
v 0.029830 0.440560 0.181515
v -0.023929 0.440560 0.186166
v 0.026051 0.440560 0.188132
v -0.016892 0.440560 0.194619
v 0.020568 0.440560 0.194797
v -0.010463 0.440560 0.199181
v 0.002479 0.440560 0.203062
v -0.003596 0.440560 0.093143
v 0.003330 0.440560 0.146657
v 0.000877 0.440560 0.122533
v 0.004507 0.440560 0.166843
v 0.002301 0.440560 0.134595
v 0.004107 0.440560 0.159055
v -0.001200 0.440560 0.110851
v -0.002347 0.440560 0.105237
v 0.004448 0.440560 0.170530
v 0.003713 0.440560 0.175997
v 0.003959 0.440560 0.178822
v -0.033803 0.440560 0.148476
v 0.037195 0.440560 0.148476
v 0.004111 0.440560 0.150887
v -0.148547 0.396215 0.047983
v 0.005510 0.396215 0.320523
v -0.033911 0.396215 0.317219
v 0.180259 0.396215 0.097871
v 0.188421 0.396215 0.152500
v 0.109903 0.396215 0.013042
v 0.155180 0.396215 0.052323
v -0.096552 0.396215 0.294535
v -0.176673 0.396215 0.204507
v -0.185648 0.396215 0.152500
v 0.149616 0.396215 0.254198
v -0.133625 0.396215 0.268515
v -0.155405 0.396215 0.244975
v 0.184702 0.396215 0.187701
v 0.169894 0.396215 0.224137
v 0.000887 0.396215 -0.019705
v 0.033544 0.396215 -0.016792
v 0.068265 0.301509 0.371224
v -0.126033 0.301509 -0.041562
v 0.088970 0.301509 -0.060010
v -0.156465 0.301509 -0.021368
v 0.126821 0.301509 0.345226
v -0.079875 0.301509 0.363273
v -0.034137 0.301509 -0.073303
v -0.096109 0.301509 -0.055083
v -0.223930 0.301509 0.076035
v 0.006328 0.301509 0.379253
v 0.227256 0.301509 0.081442
v 0.138308 0.301509 -0.032022
v -0.122705 0.301509 0.344493
v -0.223999 0.301509 0.224074
v -0.169575 0.301509 0.309690
v 0.232873 0.301509 0.201595
v 0.000484 0.301509 -0.075823
v 0.163346 0.301509 0.317783
v -0.061825 0.301509 -0.068003
v -0.188441 0.301509 0.014714
v -0.043510 0.301509 0.374834
v 0.237575 0.301509 0.154513
v 0.195549 0.301509 0.020519
v -0.235346 0.301509 0.154513
v 0.188516 0.301509 0.290540
v -0.197110 0.301509 0.278203
v 0.214152 0.301509 0.250330
v 0.041771 0.301509 -0.071927
vn -0.1404 0.9446 -0.2966
vn 0.5353 -0.0000 -0.8446
vn -0.0000 -1.0000 -0.0000
vn -0.5648 -0.0000 -0.8252
vn -0.2651 -0.0193 0.9640
vn -0.1720 -0.0054 -0.9851
vn -0.1663 -0.0000 -0.9861
vn -0.1664 -0.0002 -0.9861
vn -0.9564 -0.0000 0.2922
vn 0.9561 -0.0000 0.2929
vn 0.9432 -0.1637 0.2890
vn -0.9949 -0.0000 0.1004
vn 0.9949 -0.0000 -0.1004
vn -0.2329 0.9130 -0.3350
vn -0.0849 0.2300 0.9695
vn 0.9982 -0.0000 0.0601
vn -0.9987 -0.0000 0.0511
vn -0.8423 -0.3618 0.3994
vn 0.9949 -0.0000 0.1004
vn -0.9709 -0.0000 0.2395
vn 0.7030 0.7077 -0.0710
vn 0.9927 -0.0000 0.1207
vn -0.9788 -0.0000 0.2050
vn -0.9879 -0.0000 -0.1552
vn 0.9081 -0.0000 -0.4187
vn 0.4506 0.8682 -0.2078
vn -0.8746 -0.0000 -0.4849
vn 0.7419 -0.0000 -0.6705
vn 0.9900 -0.0742 0.1204
vn -0.9509 -0.0000 0.3096
vn 0.8742 -0.0000 0.4855
vn 0.9161 0.3901 0.0925
vn -0.3768 0.1821 0.9082
vn -0.3767 0.1829 0.9081
vn -0.3767 0.1828 0.9081
vn 0.7808 -0.0000 0.6248
vn -0.7253 -0.0000 0.6884
vn -0.6494 -0.0000 0.7604
vn 0.5940 -0.0000 0.8045
vn -0.4298 0.8265 -0.3636
vn -0.3595 0.0987 0.9279
vn -0.9816 0.1341 -0.1363
vn -0.5791 0.0335 0.8146
vn -0.0538 0.9589 -0.2787
vn -0.0558 0.9588 -0.2784
vn -0.0508 0.9589 -0.2793
vn 0.2598 0.2001 0.9447
vn 0.5861 0.1623 0.7938
vn 0.5869 0.1623 0.7932
vn 0.5861 0.1620 0.7939
vn 0.7756 0.1102 0.6215
vn 0.7747 0.1232 0.6202
vn 0.7760 0.1097 0.6211
vn 0.0492 0.9584 -0.2813
vn -0.7013 0.5984 -0.3874
vn 0.8726 0.0605 0.4847
vn 0.8714 0.0601 0.4868
vn 0.8722 0.0604 0.4854
vn 0.1664 -0.0002 -0.9861
vn 0.1663 -0.0000 -0.9861
vn 0.1720 -0.0054 -0.9851
vn 0.2651 -0.0193 0.9640
vn 0.1722 0.9469 -0.2716
vn 0.2517 0.1624 -0.9541
vn 0.8852 0.1530 -0.4393
vn 0.8845 0.1538 -0.4405
vn 0.8888 0.1491 -0.4334
vn 0.1338 0.1779 0.9749
vn 0.1418 0.1739 0.9745
vn 0.1403 0.1747 0.9746
vn -0.5625 0.1620 -0.8107
vn -0.5633 0.1618 -0.8103
vn -0.5630 0.1619 -0.8104
vn -0.9780 0.1585 -0.1359
vn -0.9780 0.1585 -0.1358
vn -0.9779 0.1586 -0.1360
vn -0.5700 0.1794 0.8018
vn -0.7923 0.1873 0.5807
vn 0.4140 0.1797 0.8924
vn 0.8417 0.1667 0.5136
vn 0.9257 0.1652 0.3403
vn 0.9259 0.1655 0.3397
vn -0.3767 0.1836 0.9080
vn 0.9827 0.1605 0.0919
vn 0.9827 0.1597 0.0939
vn 0.9829 0.1629 0.0858
vn -0.0750 0.1625 -0.9838
vn -0.0748 0.1625 -0.9839
vn -0.0749 0.1625 -0.9839
vn 0.6069 0.1851 0.7730
vn -0.8911 0.1636 0.4233
vn -0.8913 0.1639 0.4227
vn -0.3618 0.1615 -0.9182
vn -0.3616 0.1614 -0.9183
vn -0.3617 0.1615 -0.9182
vn 0.0970 0.1624 -0.9819
vn 0.0971 0.1624 -0.9819
vn 0.0969 0.1624 -0.9820
vn 0.5017 0.1575 -0.8506
vn 0.5036 0.1566 -0.8496
vn 0.4955 0.1603 -0.8537
vn -0.0898 0.1788 0.9798
vn -0.0908 0.1784 0.9798
vn -0.0867 0.1801 0.9798
vn -0.4214 0.1615 -0.8924
vn -0.4222 0.1613 -0.8920
vn -0.4215 0.1615 -0.8923
vn -0.7533 0.1607 -0.6377
vn -0.7528 0.1604 -0.6384
vn -0.7533 0.1608 -0.6377
vn -0.3564 0.1633 0.9200
vn -0.1113 0.9530 -0.2820
vn 0.2795 0.9263 -0.2526
vn 0.9980 0.0212 0.0601
vn -0.8006 -0.1218 0.5867
vn -0.9908 0.1258 0.0506
vn 0.9864 0.1531 0.0594
vn 0.6430 0.4988 -0.5811
vn -0.4618 0.5759 -0.6746
vn 0.4433 0.5606 -0.6994
vn 0.4433 0.5606 -0.6995
vn 0.8668 0.1295 0.4815
vn -0.9653 0.1069 0.2382
vn 0.1363 0.6113 -0.7796
vn 0.7748 0.1232 0.6201
vn 0.5900 0.1152 0.7991
vn 0.2637 0.1067 0.9587
vn -0.1355 0.6175 -0.7748
vn -0.9443 0.1169 0.3075
vn -0.9528 0.0864 0.2911
vn -0.7211 0.1069 0.6845
vn -0.9799 0.1731 0.0989
vn -0.6459 0.1051 0.7562
vn 0.9788 0.1794 0.0988
vn 0.9821 0.1455 0.1194
vn 0.8331 0.3980 -0.3841
vn 0.9598 0.2635 -0.0969
vn -0.9733 0.1058 0.2038
vn -0.2638 0.1026 0.9591
vn -0.9414 0.3033 -0.1479
vn 0.9506 0.1079 0.2912
vn -0.7773 0.4583 -0.4310
vn -0.2287 0.9496 -0.2144
vn 0.1394 0.9296 -0.3413
vn -0.1769 0.9430 -0.2820
vn -0.1636 0.9338 0.3183
vn 0.2916 0.9519 -0.0938
vn 0.1863 0.9468 0.2623
vn -0.2811 0.9587 -0.0433
vn 0.2810 0.9595 0.0208
vn 0.2809 0.9596 0.0173
vn 0.2813 0.9593 0.0267
vn 0.1307 0.9412 0.3116
vn -0.2864 0.9541 0.0879
vn -0.2014 0.9375 0.2839
vn -0.0252 0.9301 -0.3665
vn 0.2210 0.9510 0.2160
vn -0.1190 0.9350 -0.3342
vn -0.2545 0.9544 -0.1558
vn -0.0508 0.9339 0.3539
vn 0.2879 0.9573 -0.0251
vn 0.2813 0.9407 -0.1894
vn -0.2567 0.9426 0.2137
vn -0.2860 0.9578 0.0288
vn 0.2468 0.9547 0.1665
vn -0.2734 0.9505 0.1477
vn -0.1939 0.1625 -0.9675
vn -0.1940 0.1625 -0.9675
vn -0.1936 0.1625 -0.9675
vn 0.6844 0.1551 -0.7124
vn 0.6875 0.1582 -0.7088
vn 0.6871 0.1578 -0.7092
vn 0.7361 0.1857 0.6509
vn -0.8638 0.1590 -0.4781
vn -0.8642 0.1586 -0.4775
vn -0.8641 0.1586 -0.4776
vn 0.2663 0.9578 0.1082
vn 0.0560 0.9285 -0.3672
vn 0.9797 0.1503 -0.1324
vn -0.9753 0.1603 0.1520
vn -0.9753 0.1604 0.1519
vn -0.9753 0.1602 0.1521
vn -0.9573 -0.2476 0.1491
vn 0.9561 -0.0097 0.2929
vn -0.0000 1.0000 -0.0000
vn 0.0429 0.9358 0.3498
vn 0.2439 0.9327 -0.2657
vn -0.0647 0.9318 -0.3573
vn -0.1367 0.9375 -0.3201
vn -0.3572 0.4975 -0.7905
vn -0.1555 0.5083 -0.8470
vn -0.1621 0.5070 -0.8466
vn -0.1599 0.5074 -0.8467
vn 0.4281 0.4972 -0.7547
vn 0.1047 0.5225 0.8462
vn 0.1037 0.5220 0.8466
vn 0.1085 0.5242 0.8446
vn 0.0775 0.5069 -0.8585
vn 0.0809 0.5078 -0.8576
vn 0.0799 0.5076 -0.8579
vn 0.8198 0.4658 0.3332
vn -0.6534 0.4965 0.5714
vn 0.7288 0.4766 0.4916
vn -0.8739 0.4625 0.1495
vn -0.8733 0.4658 0.1425
vn -0.8734 0.4654 0.1435
vn -0.5139 0.5070 0.6920
vn 0.5917 0.4842 -0.6446
vn 0.8808 0.4551 -0.1305
vn 0.8801 0.4583 -0.1243
vn 0.8801 0.4579 -0.1251
vn -0.0720 0.5240 0.8486
vn -0.0752 0.5251 0.8477
vn -0.0744 0.5248 0.8479
vn -0.7658 0.4659 -0.4432
vn -0.2904 0.5011 -0.8152
vn 0.6234 0.4899 0.6094
vn -0.0599 0.5089 -0.8588
vn -0.0625 0.5082 -0.8589
vn -0.0618 0.5084 -0.8589
vn -0.3441 0.5157 0.7847
vn -0.7846 0.4822 0.3897
vn 0.3326 0.5110 0.7926
vn 0.8829 0.4605 0.0921
vn 0.8829 0.4602 0.0933
vn 0.8827 0.4615 0.0891
vn -0.8784 0.4586 -0.1341
vn -0.8785 0.4581 -0.1352
vn -0.8777 0.4618 -0.1282
vn 0.5014 0.5002 0.7060
vn 0.7828 0.4705 -0.4074
vn -0.2491 0.5187 0.8179
vn -0.2586 0.5211 0.8134
vn -0.2560 0.5204 0.8146
vn -0.4810 0.4930 -0.7249
vn 0.2030 0.5023 -0.8405
vn 0.2112 0.5054 -0.8366
vn 0.2093 0.5047 -0.8375
vn -0.6399 0.4803 -0.5999
vn -0.7306 0.2169 -0.6475
vn 0.2389 0.2506 -0.9382
vn 0.2468 0.2537 -0.9353
vn 0.2450 0.2530 -0.9359
vn -0.5375 0.2343 -0.8100
vn -0.2953 0.2590 0.9196
vn -0.3043 0.2617 0.9159
vn -0.3018 0.2609 0.9170
vn 0.8772 0.1990 -0.4369
vn 0.5843 0.2318 0.7777
vn -0.9723 0.1866 -0.1406
vn -0.9723 0.1861 -0.1414
vn -0.9724 0.1896 -0.1359
vn 0.9786 0.1814 0.0968
vn 0.9786 0.1811 0.0977
vn 0.9787 0.1824 0.0943
vn 0.3932 0.2476 0.8855
vn -0.8832 0.2089 0.4199
vn -0.4028 0.2550 0.8791
vn -0.0709 0.2583 -0.9635
vn -0.0701 0.2581 -0.9636
vn -0.0725 0.2587 -0.9632
vn 0.7169 0.2175 0.6624
vn -0.3416 0.2487 -0.9064
vn -0.8484 0.1980 -0.4910
vn -0.0859 0.2654 0.9603
vn -0.0889 0.2666 0.9597
vn -0.0882 0.2663 0.9598
vn 0.9743 0.1789 -0.1368
vn 0.9744 0.1820 -0.1317
vn 0.9744 0.1816 -0.1323
vn 0.6748 0.2228 -0.7036
vn -0.5948 0.2422 0.7666
vn -0.9694 0.1886 0.1572
vn -0.9697 0.1919 0.1514
vn -0.9696 0.1914 0.1523
vn 0.8259 0.2015 0.5266
vn -0.7470 0.2262 0.6252
vn 0.9168 0.1882 0.3522
vn 0.0917 0.2567 -0.9621
vn 0.0948 0.2577 -0.9616
vn 0.0939 0.2574 -0.9617
vn 0.1250 0.2631 0.9566
vn 0.1240 0.2627 0.9569
vn 0.1286 0.2650 0.9556
vn 0.4949 0.2409 -0.8349
vn -0.1836 0.2563 -0.9490
vn -0.1817 0.2559 -0.9495
vn -0.1876 0.2572 -0.9480
vn -0.3994 0.2431 -0.8840
vn -0.3675 0.9074 -0.2038
vn -0.2413 -0.0000 0.9704
vn -0.1723 -0.0055 -0.9850
vn 0.9954 -0.0450 0.0849
vn -0.6219 0.7770 -0.0977
vn -0.2612 0.1736 0.9496
vn -0.9369 -0.2894 0.1962
vn 0.3691 0.8480 -0.3805
vn 0.2039 0.9131 -0.3530
vn 0.9286 -0.1476 0.3405
vn 0.6803 0.6541 -0.3307
vn -0.6429 0.1419 0.7527
vn -0.8709 0.4835 0.0879
vn -0.7240 0.0606 0.6872
vn -0.9439 -0.1611 0.2884
vn -0.9493 -0.0565 0.3091
vn -0.0489 0.9589 -0.2796
vn 0.1400 0.2362 0.9616
vn 0.3997 0.2129 0.8916
vn 0.5856 0.1756 0.7914
vn -0.0221 0.9568 -0.2900
vn -0.9613 0.1405 0.2372
vn 0.7283 0.1097 0.6765
vn 0.1723 -0.0055 -0.9850
vn 0.2413 -0.0000 0.9704
vn 0.0307 0.9499 -0.3110
vn 0.2920 0.1465 -0.9451
vn 0.8894 0.1484 -0.4323
vn 0.1321 0.1787 0.9750
vn -0.5623 0.1621 -0.8109
vn -0.9779 0.1587 -0.1361
vn -0.6010 0.1974 0.7745
vn -0.7562 0.1665 0.6328
vn 0.4029 0.1735 0.8987
vn 0.8582 0.1806 0.4805
vn 0.9259 0.1655 0.3395
vn -0.3110 0.1639 0.9362
vn 0.9830 0.1636 0.0839
vn 0.5857 0.1760 0.7912
vn -0.8910 0.1634 0.4236
vn -0.3624 0.1617 -0.9179
vn 0.0968 0.1623 -0.9820
vn 0.4936 0.1612 -0.8546
vn -0.0858 0.1804 0.9798
vn -0.7535 0.1609 -0.6375
vn -0.4094 0.1842 0.8936
vn -0.1781 0.9490 -0.2601
vn 0.0992 0.9418 -0.3211
vn 0.8710 0.0599 0.4876
vn -0.9914 -0.1204 0.0507
vn 0.6430 0.4988 -0.5812
vn -0.2840 0.9461 -0.1556
vn 0.0839 0.9324 -0.3515
vn -0.2454 0.9421 -0.2286
vn -0.0999 0.9378 0.3325
vn 0.2602 0.9549 -0.1433
vn 0.2569 0.9430 0.2114
vn -0.2874 0.9575 -0.0258
vn 0.2814 0.9591 0.0297
vn 0.2067 0.9351 0.2878
vn -0.2570 0.9569 0.1350
vn -0.1300 0.9406 0.3138
vn -0.0432 0.9293 -0.3669
vn 0.2749 0.9486 0.1570
vn -0.1893 0.9316 -0.3104
vn -0.2898 0.9515 -0.1037
vn -0.0295 0.9353 0.3525
vn 0.2822 0.9584 -0.0422
vn 0.2123 0.9461 -0.2447
vn -0.1849 0.9468 0.2635
vn -0.2788 0.9591 0.0481
vn 0.2844 0.9521 0.1121
vn -0.2237 0.9524 0.2069
vn -0.1935 0.1626 -0.9675
vn 0.6839 0.1547 -0.7130
vn 0.7209 0.1789 0.6696
vn -0.8636 0.1592 -0.4783
vn 0.2852 0.9561 0.0677
vn 0.0327 0.9299 -0.3663
vn 0.9766 0.1584 -0.1455
vn -0.9753 0.1601 0.1523
vn -0.9079 -0.3143 0.2774
vn 0.9431 0.3014 -0.1405
vn -0.0000 1.0000 -0.0001
vn -0.0000 1.0000 0.0001
vn 0.0735 0.9336 0.3506
vn 0.1628 0.9388 -0.3036
vn -0.1082 0.9306 -0.3496
vn -0.2060 0.9372 -0.2816
vn -0.3398 0.5014 -0.7957
vn -0.1533 0.5087 -0.8472
vn 0.4121 0.4893 -0.7686
vn 0.1095 0.5245 0.8443
vn 0.0766 0.5066 -0.8588
vn 0.8230 0.4720 0.3161
vn -0.6400 0.4896 0.5922
vn 0.7380 0.4837 0.4705
vn -0.8740 0.4619 0.1508
vn -0.4983 0.4978 0.7099
vn 0.5783 0.4704 -0.6666
vn 0.8810 0.4545 -0.1316
vn -0.0712 0.5237 0.8489
vn -0.7496 0.4770 -0.4590
vn -0.3044 0.5049 -0.8077
vn 0.6380 0.4956 0.5894
vn -0.0591 0.5091 -0.8587
vn -0.3293 0.5101 0.7946
vn -0.7794 0.4741 0.4096
vn 0.3470 0.5184 0.7816
vn 0.8826 0.4618 0.0881
vn -0.8775 0.4623 -0.1276
vn 0.5178 0.5070 0.6891
vn 0.7777 0.4602 -0.4282
vn -0.2462 0.5179 0.8193
vn -0.4606 0.4986 -0.7343
vn 0.2008 0.5015 -0.8415
vn -0.6532 0.4881 -0.5789
vn -0.7432 0.2244 -0.6303
vn 0.2370 0.2498 -0.9388
vn -0.5532 0.2397 -0.7978
vn -0.2927 0.2582 0.9207
vn 0.8710 0.1894 -0.4533
vn 0.5997 0.2386 0.7638
vn -0.9724 0.1901 -0.1354
vn 0.9787 0.1827 0.0935
vn 0.4069 0.2553 0.8771
vn -0.8773 0.2009 0.4358
vn -0.3889 0.2494 0.8869
vn -0.0733 0.2589 -0.9631
vn 0.7303 0.2231 0.6457
vn -0.3545 0.2525 -0.9003
vn -0.8556 0.2085 -0.4739
vn -0.0852 0.2651 0.9604
vn 0.9743 0.1784 -0.1376
vn 0.6612 0.2098 -0.7203
vn -0.5798 0.2330 0.7808
vn -0.9694 0.1880 0.1581
vn 0.8349 0.2085 0.5094
vn -0.7344 0.2196 0.6422
vn 0.9207 0.1941 0.3385
vn 0.0908 0.2564 -0.9623
vn 0.1294 0.2654 0.9554
vn 0.4798 0.2331 -0.8458
vn -0.1895 0.2576 -0.9475
vn -0.4137 0.2472 -0.8762
vt 0.212977 0.764019
vt 0.213643 0.752501
vt 0.213025 0.752568
vt 0.312314 0.790515
vt 0.312308 0.787616
vt 0.309886 0.787609
vt 0.177659 0.884508
vt 0.182207 0.884049
vt 0.179795 0.882732
vt 0.090053 0.915501
vt 0.090285 0.914360
vt 0.087825 0.914351
vt 0.116728 0.787137
vt 0.116650 0.789520
vt 0.118595 0.789574
vt 0.310065 0.792552
vt 0.310361 0.794181
vt 0.312783 0.794189
vt 0.090523 0.903113
vt 0.090504 0.900769
vt 0.088045 0.900761
vt 0.177474 0.896037
vt 0.177702 0.898284
vt 0.183104 0.897739
vt 0.262327 0.898039
vt 0.262398 0.900331
vt 0.264841 0.900344
vt 0.258569 0.903575
vt 0.258508 0.901585
vt 0.254860 0.905508
vt 0.090498 0.909883
vt 0.090532 0.906539
vt 0.088073 0.906530
vt 0.177381 0.889342
vt 0.177381 0.892694
vt 0.184048 0.892022
vt 0.261859 0.892326
vt 0.262135 0.895009
vt 0.264579 0.895022
vt 0.214313 0.761516
vt 0.214313 0.752314
vt 0.116686 0.793411
vt 0.116961 0.797421
vt 0.117942 0.797405
vt 0.262586 0.904602
vt 0.262779 0.907330
vt 0.265222 0.907343
vt 0.178052 0.902683
vt 0.178374 0.905740
vt 0.182564 0.905317
vt 0.090487 0.896228
vt 0.090532 0.893172
vt 0.088073 0.893163
vt 0.084099 0.895672
vt 0.080292 0.892911
vt 0.080317 0.894046
vt 0.264770 0.898052
vt 0.183564 0.895422
vt 0.088063 0.903104
vt 0.203993 0.754865
vt 0.203320 0.757695
vt 0.209033 0.750713
vt 0.262469 0.902622
vt 0.265030 0.904615
vt 0.177930 0.900531
vt 0.182412 0.902243
vt 0.090486 0.898426
vt 0.088028 0.896219
vt 0.090391 0.912978
vt 0.088039 0.909874
vt 0.184048 0.888669
vt 0.183219 0.885507
vt 0.312413 0.785587
vt 0.312783 0.782550
vt 0.310361 0.782543
vt 0.203621 0.760767
vt 0.209649 0.751426
vt 0.087932 0.912969
vt 0.177545 0.886079
vt 0.309991 0.785579
vt 0.258672 0.905294
vt 0.254916 0.906354
vt 0.090517 0.891599
vt 0.088058 0.891590
vt 0.178699 0.907226
vt 0.182226 0.906870
vt 0.262779 0.909058
vt 0.265222 0.909071
vt 0.258446 0.899595
vt 0.258280 0.896963
vt 0.254574 0.903673
vt 0.118375 0.793458
vt 0.118588 0.797442
vt 0.262754 0.910050
vt 0.265198 0.910063
vt 0.178719 0.908009
vt 0.181567 0.907722
vt 0.090466 0.890702
vt 0.088007 0.890693
vt 0.118660 0.787179
vt 0.119678 0.789728
vt 0.178916 0.909243
vt 0.180735 0.908591
vt 0.262676 0.911265
vt 0.265119 0.911278
vt 0.084138 0.904628
vt 0.080178 0.897987
vt 0.080111 0.898584
vt 0.119316 0.793592
vt 0.119434 0.797487
vt 0.177003 0.908967
vt 0.175872 0.908296
vt 0.084114 0.899617
vt 0.080310 0.895430
vt 0.080261 0.896914
vt 0.084125 0.891652
vt 0.080191 0.891328
vt 0.080259 0.892119
vt 0.175171 0.907582
vt 0.209527 0.765672
vt 0.212334 0.752596
vt 0.211809 0.752524
vt 0.173112 0.884967
vt 0.171872 0.886652
vt 0.115226 0.793580
vt 0.115880 0.797505
vt 0.170714 0.890015
vt 0.173691 0.903123
vt 0.258749 0.911081
vt 0.258818 0.910026
vt 0.254861 0.909845
vt 0.171384 0.896652
vt 0.258839 0.909165
vt 0.254911 0.909073
vt 0.174184 0.906163
vt 0.205897 0.764410
vt 0.207602 0.765358
vt 0.084130 0.901652
vt 0.170714 0.893367
vt 0.258839 0.907664
vt 0.254938 0.908312
vt 0.172299 0.898829
vt 0.309892 0.790507
vt 0.114969 0.789715
vt 0.175392 0.883177
vt 0.204330 0.762440
vt 0.211179 0.752357
vt 0.145859 0.671528
vt 0.148101 0.671505
vt 0.148091 0.670708
vt 0.146026 0.668146
vt 0.148253 0.668381
vt 0.148429 0.667324
vt 0.116022 0.799740
vt 0.080053 0.898877
vt 0.077890 0.898263
vt 0.078072 0.895376
vt 0.120476 0.797609
vt 0.119325 0.799733
vt 0.078024 0.892429
vt 0.252623 0.909606
vt 0.252528 0.910528
vt 0.254939 0.907357
vt 0.252693 0.907366
vt 0.252688 0.908214
vt 0.252672 0.906448
vt 0.117867 0.799653
vt 0.252623 0.905680
vt 0.145944 0.672732
vt 0.148179 0.672610
vt 0.148132 0.672137
vt 0.252668 0.908858
vt 0.078056 0.893069
vt 0.146086 0.673507
vt 0.148309 0.673322
vt 0.148227 0.672956
vt 0.145893 0.672217
vt 0.145855 0.670548
vt 0.148134 0.669723
vt 0.117017 0.799666
vt 0.146172 0.673830
vt 0.148388 0.673619
vt 0.077951 0.897717
vt 0.118526 0.799679
vt 0.211829 0.765046
vt 0.210472 0.752031
vt 0.084138 0.893019
vt 0.316653 0.786439
vt 0.211529 0.768107
vt 0.316658 0.788957
vt 0.312485 0.792567
vt 0.316807 0.790739
vt 0.317066 0.792148
vt 0.120112 0.793731
vt 0.084109 0.907531
vt 0.316744 0.784677
vt 0.258040 0.894633
vt 0.084098 0.897582
vt 0.084016 0.910220
vt 0.083923 0.911420
vt 0.167433 0.667615
vt 0.166947 0.667299
vt 0.166229 0.669368
vt 0.168452 0.669933
vt 0.166650 0.669844
vt 0.166625 0.669962
vt 0.167733 0.667945
vt 0.166377 0.669418
vt 0.163107 0.669817
vt 0.164939 0.669947
vt 0.164967 0.669855
vt 0.167722 0.672005
vt 0.166367 0.670263
vt 0.166152 0.670378
vt 0.163823 0.671838
vt 0.164220 0.672227
vt 0.165239 0.670389
vt 0.166161 0.666992
vt 0.165230 0.667015
vt 0.165685 0.669354
vt 0.166267 0.672796
vt 0.165882 0.670451
vt 0.165703 0.670472
vt 0.163394 0.671176
vt 0.165121 0.670322
vt 0.163886 0.667739
vt 0.165237 0.669526
vt 0.165429 0.669427
vt 0.163161 0.669348
vt 0.165019 0.669743
vt 0.168406 0.669420
vt 0.168301 0.669002
vt 0.166623 0.669667
vt 0.164589 0.672478
vt 0.165351 0.670429
vt 0.168179 0.668675
vt 0.167955 0.668283
vt 0.166529 0.669536
vt 0.165984 0.669327
vt 0.163166 0.670435
vt 0.164943 0.670066
vt 0.167088 0.672518
vt 0.168203 0.671196
vt 0.166540 0.670095
vt 0.163284 0.668786
vt 0.165130 0.669611
vt 0.164452 0.667298
vt 0.165110 0.672708
vt 0.165513 0.670461
vt 0.163583 0.668141
vt 0.145996 0.673109
vt 0.145894 0.669608
vt 0.078027 0.896734
vt 0.165713 0.672836
vt 0.166647 0.669746
vt 0.088027 0.898417
vt 0.254735 0.904415
vt 0.252508 0.904645
vt 0.078078 0.894109
vt 0.173215 0.901007
vt 0.264912 0.902635
vt 0.182644 0.900055
vt 0.166440 0.669720
vt 0.165816 0.669923
vt 0.165753 0.669946
vt 0.166182 0.669818
vt 0.165999 0.669873
vt 0.165451 0.670006
vt 0.165627 0.669969
vt 0.165508 0.669997
vt 0.166356 0.669753
vt 0.165364 0.670010
vt 0.165321 0.670021
vt 0.164999 0.670204
vt 0.166466 0.669475
vt 0.168418 0.670535
vt 0.166592 0.669606
vt 0.150268 0.673038
vt 0.150338 0.673313
vt 0.151911 0.672633
vt 0.150151 0.672382
vt 0.150195 0.672699
vt 0.151801 0.672137
vt 0.150105 0.669767
vt 0.150069 0.670654
vt 0.151701 0.670522
vt 0.116195 0.801721
vt 0.116592 0.803370
vt 0.117311 0.803318
vt 0.150080 0.671375
vt 0.150109 0.671950
vt 0.151734 0.671542
vt 0.250722 0.906511
vt 0.249139 0.906707
vt 0.249150 0.907317
vt 0.120595 0.801918
vt 0.120051 0.801815
vt 0.119631 0.803434
vt 0.250738 0.907318
vt 0.249143 0.907885
vt 0.076128 0.895321
vt 0.076133 0.894214
vt 0.074580 0.894384
vt 0.119200 0.801710
vt 0.118964 0.803357
vt 0.150206 0.668564
vt 0.151725 0.669831
vt 0.250679 0.905840
vt 0.250578 0.904941
vt 0.249032 0.905535
vt 0.117876 0.801642
vt 0.117102 0.801654
vt 0.076020 0.897357
vt 0.076088 0.896504
vt 0.074547 0.896096
vt 0.151857 0.672409
vt 0.250732 0.908067
vt 0.249126 0.908321
vt 0.151767 0.671884
vt 0.118475 0.801664
vt 0.118394 0.803324
vt 0.076112 0.893305
vt 0.074563 0.893701
vt 0.115410 0.801854
vt 0.115967 0.803471
vt 0.249108 0.906203
vt 0.074577 0.895213
vt 0.250712 0.908637
vt 0.249091 0.908831
vt 0.150358 0.667625
vt 0.151798 0.668900
vt 0.117923 0.803308
vt 0.168452 0.667392
vt 0.168056 0.666977
vt 0.151711 0.671088
vt 0.074494 0.896730
vt 0.074450 0.897079
vt 0.075965 0.897829
vt 0.075916 0.898060
vt 0.250670 0.909302
vt 0.250582 0.910126
vt 0.120266 0.799854
vt 0.076083 0.892744
vt 0.177556 0.882583
vt 0.087594 0.915492
vt 0.264303 0.892339
vt 0.208362 0.749381
vt 0.119743 0.787334
vt 0.254760 0.910809
vt 0.115034 0.787320
vt 0.146223 0.666977
vt 0.077836 0.898531
vt 0.208878 0.768828
vt 0.120595 0.789889
vt 0.317066 0.782040
vt 0.120056 0.803510
vt 0.151911 0.668179
s 1
usemtl マテリアル.004
f 69/1/1 87/2/1 89/3/1
f 4/4/2 34/5/2 35/6/2
f 65/7/3 36/8/3 6/9/3
f 6/10/4 36/11/4 33/12/4
f 51/13/5 49/14/5 1/15/5
f 52/16/6 6/17/7 2/18/8
f 12/19/9 154/20/9 151/21/9
f 53/22/3 155/23/3 154/24/3
f 10/25/10 152/26/10 153/27/10
f 61/28/11 159/29/11 157/30/11
f 16/31/12 23/32/12 24/33/12
f 55/34/3 60/35/3 23/36/3
f 14/37/13 21/38/13 22/39/13
f 99/40/14 79/41/14 87/2/14
f 105/42/15 97/43/15 73/44/15
f 17/45/16 37/46/16 38/47/16
f 58/48/3 67/49/3 39/50/3
f 19/51/17 39/52/17 40/53/17
f 68/54/18 82/55/18 85/56/18
f 21/38/19 10/25/19 11/57/19
f 60/35/3 53/22/3 12/58/3
f 12/19/20 9/59/20 24/33/20
f 57/60/21 64/61/21 80/62/21
f 26/63/22 17/45/22 18/64/22
f 62/65/3 58/48/3 19/66/3
f 28/67/23 19/51/23 20/68/23
f 32/69/24 16/31/24 13/70/24
f 55/34/3 16/71/3 32/72/3
f 30/73/25 14/74/25 15/75/25
f 64/61/26 66/76/26 88/77/26
f 36/11/27 32/69/27 29/78/27
f 63/79/3 32/72/3 36/8/3
f 34/5/28 30/73/28 31/80/28
f 59/81/29 61/28/29 86/82/29
f 39/52/30 43/83/30 44/84/30
f 67/49/3 70/85/3 43/86/3
f 41/87/31 42/88/31 38/47/31
f 56/89/32 57/90/32 83/91/32
f 54/92/33 73/44/34 96/93/35
f 45/94/36 46/95/36 42/88/36
f 70/85/3 71/96/3 47/97/3
f 43/83/37 47/98/37 48/99/37
f 5/100/38 1/15/38 48/101/38
f 71/96/3 51/102/3 5/103/3
f 45/94/39 3/104/39 7/105/39
f 110/106/40 84/107/40 79/108/40
f 100/109/41 96/93/41 94/110/41
f 7/111/3 51/102/3 71/96/3
f 46/112/3 71/96/3 70/85/3
f 158/113/42 156/114/42 77/115/42
f 102/116/43 94/117/43 92/118/43
f 42/119/3 70/85/3 67/49/3
f 104/120/44 74/121/45 98/122/46
f 35/123/3 31/124/3 63/79/3
f 105/42/47 106/125/47 75/126/47
f 31/124/3 15/127/3 55/34/3
f 18/128/3 58/48/3 62/65/3
f 106/129/48 107/130/49 95/131/50
f 11/132/3 53/22/3 60/35/3
f 107/130/51 112/133/52 93/134/53
f 38/135/3 67/49/3 58/48/3
f 113/136/54 108/137/54 98/122/54
f 109/138/55 77/115/55 84/107/55
f 15/127/3 22/139/3 60/35/3
f 112/133/56 111/140/57 91/141/58
f 153/142/3 155/23/3 53/22/3
f 4/4/59 8/143/60 52/16/61
f 3/144/62 49/14/62 51/13/62
f 8/145/3 35/123/3 65/7/3
f 114/146/63 113/136/63 76/147/63
f 90/148/64 132/149/64 130/150/64
f 83/151/65 125/152/66 120/153/67
f 97/43/68 75/126/69 117/154/70
f 87/155/71 79/108/72 121/156/73
f 77/115/74 156/114/75 160/157/76
f 92/158/77 94/110/77 136/159/77
f 82/55/78 92/118/78 134/160/78
f 95/131/79 137/161/79 117/162/79
f 81/163/80 123/164/80 133/165/80
f 86/82/81 128/166/81 123/164/82
f 96/93/35 73/44/34 115/167/83
f 157/30/84 161/168/85 128/166/86
f 98/169/87 140/170/88 118/171/89
f 93/134/90 135/172/90 137/161/90
f 85/56/91 82/55/92 124/173/91
f 89/174/93 131/175/94 116/176/95
f 90/148/96 76/177/97 118/171/98
f 88/178/99 130/150/100 122/179/101
f 97/43/102 139/180/103 115/167/104
f 89/174/105 87/181/106 129/182/107
f 84/107/108 126/183/109 121/156/110
f 94/110/111 96/93/111 138/184/111
f 72/185/112 89/3/112 74/121/112
f 66/76/113 114/146/113 90/186/113
f 111/140/114 59/81/114 81/163/114
f 103/187/115 92/118/115 82/55/115
f 40/53/116 103/187/116 68/54/116
f 37/46/117 17/45/117 59/81/117
f 30/73/118 34/5/118 114/188/118
f 33/189/119 72/185/119 104/120/119
f 34/5/120 4/4/120 113/190/121
f 41/87/122 37/46/122 111/140/122
f 9/59/123 109/138/123 110/106/123
f 4/4/124 50/191/124 108/192/124
f 45/94/125 41/87/125 112/133/52
f 3/104/126 45/94/126 107/130/126
f 49/14/127 3/144/127 106/125/127
f 2/18/128 104/193/128 108/192/128
f 44/84/129 102/116/129 103/187/129
f 151/21/130 158/113/130 109/138/130
f 48/101/131 100/109/131 102/194/131
f 24/33/132 110/106/132 99/195/132
f 1/15/133 54/92/133 100/109/133
f 10/25/134 21/38/134 57/90/134
f 17/45/135 26/63/135 61/28/135
f 14/74/136 30/73/136 66/196/136
f 21/38/137 14/37/137 64/197/137
f 20/68/138 68/54/138 101/198/138
f 1/15/139 49/14/139 105/42/139
f 13/70/140 99/195/140 69/199/140
f 26/63/141 152/26/141 159/29/141
f 29/78/142 69/199/142 72/200/142
f 150/201/143 202/202/143 174/203/143
f 218/204/144 180/205/144 178/206/144
f 149/207/145 150/201/145 169/208/145
f 204/209/146 163/210/146 186/211/146
f 208/212/147 173/213/147 168/214/147
f 148/215/148 144/216/148 183/217/148
f 141/218/149 211/219/149 199/220/149
f 206/221/150 200/222/151 176/223/152
f 147/224/153 148/215/153 185/225/153
f 214/226/154 172/227/154 175/228/154
f 146/229/155 186/211/155 184/230/155
f 217/231/156 145/232/156 188/233/156
f 144/216/157 212/234/157 181/235/157
f 142/236/158 143/237/158 179/238/158
f 202/202/159 141/218/159 167/239/159
f 203/240/160 187/241/160 163/210/160
f 205/242/161 168/214/161 200/222/161
f 207/243/162 170/244/162 173/213/162
f 209/245/163 184/230/163 182/246/163
f 210/247/164 175/228/164 199/220/164
f 212/234/165 216/248/165 171/249/165
f 213/250/166 182/246/166 172/227/166
f 98/169/167 74/251/168 116/176/169
f 83/151/170 80/252/171 122/179/172
f 91/141/173 133/165/173 135/172/173
f 84/107/174 77/115/175 119/253/176
f 216/248/177 215/254/177 176/223/177
f 217/231/178 166/255/178 180/205/178
f 152/26/141 10/25/141 56/89/141
f 25/256/130 101/198/130 158/113/130
f 78/257/179 120/258/179 161/168/179
f 156/114/180 85/56/181 127/259/182
f 27/260/3 62/65/3 155/23/3
f 101/198/183 85/56/183 156/114/183
f 159/29/184 56/89/184 78/257/184
f 152/26/10 26/63/10 27/261/10
f 155/23/3 62/65/3 28/262/3
f 154/20/9 28/67/9 25/256/9
f 188/233/185 195/263/185 180/205/185
f 189/264/185 201/265/185 200/222/185
f 190/266/185 192/267/185 173/213/185
f 196/268/185 181/235/185 171/249/185
f 192/267/185 189/264/185 168/214/185
f 193/269/185 191/270/185 171/249/185
f 194/271/185 190/266/185 170/244/185
f 195/263/185 194/271/185 178/206/185
f 197/272/185 183/217/185 181/235/185
f 198/273/185 185/225/185 183/217/185
f 187/241/185 165/274/185 185/225/185
f 186/211/185 163/210/185 187/241/185
f 184/230/185 186/211/185 198/273/185
f 182/246/185 184/230/185 197/272/185
f 177/275/185 194/271/185 195/263/185
f 169/208/185 190/266/185 194/271/185
f 175/228/185 172/227/185 191/270/185
f 167/239/185 189/264/185 192/267/185
f 172/227/185 182/246/185 196/268/185
f 174/203/185 192/267/185 190/266/185
f 199/220/185 201/265/185 189/264/185
f 179/238/185 195/263/185 188/233/185
f 175/228/185 193/269/185 201/265/185
f 201/265/185 193/269/185 176/223/185
f 203/240/186 147/224/186 165/274/186
f 162/276/187 178/206/187 170/244/187
f 145/232/188 142/236/188 164/277/188
f 143/237/189 149/207/189 177/275/189
f 226/278/190 220/279/190 149/280/190
f 225/281/191 237/282/192 142/283/193
f 230/284/194 221/285/194 162/286/194
f 219/287/195 147/288/196 203/289/197
f 246/290/198 235/291/199 217/292/200
f 234/293/201 215/294/201 216/295/201
f 244/296/202 233/297/202 213/298/202
f 245/299/203 216/295/203 212/300/203
f 242/301/204 232/302/205 210/303/206
f 233/297/207 231/304/207 209/305/207
f 241/306/208 230/284/208 207/307/208
f 240/308/209 229/309/210 205/310/211
f 239/311/212 228/312/213 203/289/214
f 238/313/215 227/314/215 141/315/215
f 226/278/216 143/316/216 142/283/216
f 243/317/217 212/300/217 144/318/217
f 235/291/218 225/281/219 145/319/220
f 231/304/221 224/320/221 146/321/221
f 232/302/222 244/322/222 214/323/222
f 223/324/223 148/325/223 147/288/223
f 240/308/224 206/326/225 215/294/226
f 242/301/227 211/327/228 141/315/229
f 236/328/230 144/318/230 148/329/230
f 229/330/231 241/306/231 208/331/231
f 224/320/232 239/311/233 204/332/234
f 220/333/235 222/334/235 150/201/235
f 221/285/236 246/290/237 218/335/238
f 238/313/239 202/336/239 150/337/239
f 126/183/240 238/313/240 222/338/240
f 130/150/241 132/149/242 246/290/243
f 121/156/244 222/338/244 220/339/244
f 138/184/245 115/167/246 239/311/247
f 120/153/248 125/152/248 241/306/248
f 135/172/249 236/328/249 223/340/249
f 160/157/250 242/301/251 227/314/252
f 161/168/253 240/308/254 234/293/255
f 137/161/256 223/340/256 219/341/256
f 127/259/257 124/173/257 244/322/257
f 136/159/258 138/184/258 224/320/258
f 140/170/259 225/281/260 235/291/261
f 133/165/262 243/317/262 236/328/262
f 131/175/263 226/278/263 237/282/263
f 119/253/264 227/314/264 238/313/264
f 115/167/265 139/180/266 228/312/267
f 161/168/268 120/258/269 229/309/270
f 125/152/271 122/179/271 230/284/271
f 134/342/272 136/159/272 231/304/272
f 160/157/273 127/259/274 232/302/275
f 123/164/276 245/299/276 243/317/276
f 124/173/277 134/160/277 233/343/277
f 128/166/278 234/293/278 245/299/278
f 132/149/279 118/171/280 235/291/281
f 117/154/282 219/287/283 228/312/284
f 122/179/285 130/150/285 221/285/285
f 116/176/286 237/282/287 225/281/288
f 129/182/289 220/279/289 226/278/289
f 69/1/290 89/3/290 72/185/290
f 4/4/2 35/6/2 8/143/2
f 65/7/3 6/9/3 52/344/3
f 6/10/4 33/12/4 2/345/4
f 51/13/291 1/15/291 5/100/291
f 52/16/6 2/18/8 50/191/292
f 12/19/9 151/21/9 9/59/9
f 53/22/3 154/24/3 12/58/3
f 10/25/10 153/27/10 11/57/10
f 61/28/293 157/30/293 86/82/293
f 16/31/12 24/33/12 13/70/12
f 55/34/3 23/36/3 16/71/3
f 14/37/13 22/39/13 15/346/13
f 99/40/294 87/2/294 69/1/294
f 105/42/295 73/44/295 54/92/295
f 17/45/16 38/47/16 18/64/16
f 58/48/3 39/50/3 19/66/3
f 19/51/17 40/53/17 20/68/17
f 68/54/296 85/56/296 101/198/296
f 21/38/19 11/57/19 22/39/19
f 60/35/3 12/58/3 23/36/3
f 12/19/20 24/33/20 23/32/20
f 57/60/297 80/62/297 83/347/297
f 26/63/22 18/64/22 27/261/22
f 62/65/3 19/66/3 28/262/3
f 28/67/23 20/68/23 25/256/23
f 32/69/24 13/70/24 29/78/24
f 55/34/3 32/72/3 63/79/3
f 30/73/25 15/75/25 31/80/25
f 64/61/298 88/77/298 80/62/298
f 36/11/27 29/78/27 33/12/27
f 63/79/3 36/8/3 65/7/3
f 34/5/28 31/80/28 35/6/28
f 59/81/299 86/82/299 81/163/299
f 39/52/30 44/84/30 40/53/30
f 67/49/3 43/86/3 39/50/3
f 41/87/31 38/47/31 37/46/31
f 56/89/300 83/91/300 78/257/300
f 54/92/301 96/93/301 100/109/301
f 45/94/36 42/88/36 41/87/36
f 70/85/3 47/97/3 43/86/3
f 43/83/37 48/99/37 44/84/37
f 5/100/38 48/101/38 47/348/38
f 71/96/3 5/103/3 47/97/3
f 45/94/39 7/105/39 46/95/39
f 110/106/302 79/108/302 99/195/302
f 100/109/303 94/110/303 102/194/303
f 7/111/3 71/96/3 46/112/3
f 46/112/3 70/85/3 42/119/3
f 158/113/304 77/115/304 109/138/304
f 102/116/305 92/118/305 103/187/305
f 42/119/3 67/49/3 38/135/3
f 104/120/44 98/122/46 108/137/306
f 35/123/3 63/79/3 65/7/3
f 105/42/307 75/126/307 97/43/307
f 31/124/3 55/34/3 63/79/3
f 18/128/3 62/65/3 27/260/3
f 106/129/308 95/131/308 75/349/308
f 11/132/3 60/35/3 22/139/3
f 107/130/49 93/134/309 95/131/50
f 38/135/3 58/48/3 18/128/3
f 113/136/310 98/122/310 76/147/310
f 109/138/311 84/107/311 110/106/311
f 15/127/3 60/35/3 55/34/3
f 112/133/312 91/141/312 93/134/312
f 153/142/3 53/22/3 11/132/3
f 4/4/59 52/16/61 50/191/313
f 3/144/314 51/13/314 7/350/314
f 8/145/3 65/7/3 52/344/3
f 114/146/315 76/147/315 90/186/315
f 90/148/316 130/150/316 88/178/316
f 83/151/65 120/153/67 78/351/317
f 97/43/68 117/154/70 139/180/318
f 87/155/71 121/156/73 129/352/319
f 77/115/74 160/157/76 119/253/320
f 92/158/321 136/159/321 134/342/321
f 82/55/322 134/160/322 124/173/322
f 95/131/323 117/162/323 75/349/323
f 81/163/324 133/165/324 91/141/324
f 86/82/81 123/164/82 81/163/325
f 96/93/326 115/167/326 138/184/326
f 157/30/84 128/166/86 86/82/327
f 98/169/87 118/171/89 76/177/87
f 93/134/309 137/161/328 95/131/50
f 85/56/91 124/173/91 127/259/329
f 89/174/93 116/176/95 74/251/330
f 90/148/96 118/171/98 132/149/331
f 88/178/99 122/179/101 80/252/332
f 97/43/102 115/167/104 73/44/333
f 89/174/105 129/182/107 131/175/105
f 84/107/108 121/156/110 79/108/334
f 94/110/335 138/184/335 136/159/335
f 72/185/336 74/121/336 104/120/336
f 66/76/337 90/186/337 88/77/337
f 111/140/57 81/163/338 91/141/58
f 103/187/339 82/55/339 68/54/339
f 40/53/116 68/54/116 20/68/116
f 37/46/117 59/81/117 111/140/117
f 30/73/118 114/188/118 66/196/340
f 33/189/119 104/120/119 2/353/119
f 34/5/120 113/190/121 114/188/121
f 41/87/122 111/140/122 112/133/122
f 9/59/123 110/106/123 24/33/123
f 4/4/124 108/192/124 113/190/124
f 45/94/125 112/133/52 107/130/51
f 3/104/126 107/130/126 106/129/126
f 49/14/127 106/125/127 105/42/127
f 2/18/128 108/192/128 50/191/128
f 44/84/129 103/187/129 40/53/129
f 151/21/130 109/138/130 9/59/130
f 48/101/131 102/194/131 44/354/131
f 24/33/132 99/195/132 13/70/132
f 1/15/133 100/109/133 48/101/133
f 10/25/134 57/90/134 56/89/134
f 17/45/135 61/28/135 59/81/135
f 14/74/136 66/196/136 64/355/136
f 21/38/137 64/197/137 57/90/137
f 20/68/138 101/198/138 25/256/138
f 1/15/139 105/42/139 54/92/139
f 13/70/140 69/199/140 29/78/140
f 26/63/141 159/29/141 61/28/141
f 29/78/142 72/200/142 33/12/142
f 150/201/341 174/203/341 169/208/341
f 218/204/342 178/206/342 162/276/342
f 149/207/343 169/208/343 177/275/343
f 204/209/344 186/211/344 146/229/344
f 208/212/345 168/214/345 205/242/345
f 148/215/346 183/217/346 185/225/346
f 141/218/347 199/220/347 167/239/347
f 206/221/150 176/223/152 215/254/348
f 147/224/349 185/225/349 165/274/349
f 214/226/350 175/228/350 210/247/350
f 146/229/351 184/230/351 209/245/351
f 217/231/352 188/233/352 166/255/352
f 144/216/353 181/235/353 183/217/353
f 142/236/354 179/238/354 164/277/354
f 202/202/355 167/239/355 174/203/355
f 203/240/356 163/210/356 204/209/356
f 205/242/357 200/222/357 206/221/357
f 207/243/358 173/213/358 208/212/358
f 209/245/359 182/246/359 213/250/359
f 210/247/360 199/220/360 211/219/360
f 212/234/361 171/249/361 181/235/361
f 213/250/362 172/227/362 214/226/362
f 98/169/167 116/176/169 140/170/363
f 83/151/170 122/179/172 125/152/364
f 91/141/365 135/172/365 93/134/365
f 84/107/174 119/253/176 126/183/366
f 216/248/367 176/223/367 171/249/367
f 217/231/368 180/205/368 218/204/368
f 152/26/141 56/89/141 159/29/141
f 25/256/130 158/113/130 151/21/130
f 78/257/369 161/168/369 157/30/369
f 156/114/180 127/259/182 160/157/370
f 27/260/3 155/23/3 153/142/3
f 101/198/371 156/114/371 158/113/371
f 159/29/372 78/257/372 157/30/372
f 152/26/10 27/261/10 153/27/10
f 155/23/3 28/262/3 154/24/3
f 154/20/9 25/256/9 151/21/9
f 188/233/185 180/205/185 166/255/373
f 189/264/185 200/222/185 168/214/185
f 190/266/185 173/213/185 170/244/185
f 196/268/185 171/249/185 191/270/185
f 192/267/185 168/214/185 173/213/185
f 193/269/185 171/249/185 176/223/185
f 194/271/185 170/244/185 178/206/185
f 195/263/185 178/206/185 180/205/185
f 197/272/185 181/235/185 196/268/185
f 198/273/185 183/217/185 197/272/185
f 187/241/185 185/225/185 198/273/185
f 186/211/185 187/241/185 198/273/185
f 184/230/185 198/273/185 197/272/185
f 182/246/185 197/272/185 196/268/185
f 177/275/185 195/263/185 179/238/185
f 169/208/185 194/271/185 177/275/185
f 175/228/185 191/270/185 193/269/185
f 167/239/185 192/267/185 174/203/185
f 172/227/185 196/268/185 191/270/185
f 174/203/185 190/266/185 169/208/185
f 199/220/185 189/264/185 167/239/185
f 179/238/185 188/233/185 164/277/374
f 175/228/185 201/265/185 199/220/185
f 201/265/185 176/223/185 200/222/185
f 203/240/375 165/274/375 187/241/375
f 162/276/376 170/244/376 207/243/376
f 145/232/377 164/277/377 188/233/377
f 143/237/378 177/275/378 179/238/378
f 226/278/379 149/280/379 143/316/379
f 225/281/191 142/283/193 145/319/380
f 230/284/381 162/286/381 207/307/381
f 219/287/195 203/289/197 228/312/382
f 246/290/198 217/292/200 218/335/383
f 234/293/384 216/295/384 245/299/384
f 244/296/385 213/298/385 214/356/385
f 245/299/386 212/300/386 243/317/386
f 242/301/204 210/303/206 211/327/387
f 233/297/388 209/305/388 213/298/388
f 241/306/389 207/307/389 208/331/389
f 240/308/209 205/310/211 206/326/390
f 239/311/212 203/289/214 204/332/391
f 238/313/392 141/315/392 202/336/392
f 226/278/393 142/283/393 237/282/393
f 243/317/394 144/318/394 236/328/394
f 235/291/218 145/319/220 217/292/395
f 231/304/396 146/321/396 209/305/396
f 232/302/397 214/323/397 210/303/397
f 223/324/398 147/288/398 219/287/398
f 240/308/224 215/294/226 234/293/399
f 242/301/227 141/315/229 227/314/400
f 236/328/401 148/329/401 223/340/401
f 229/330/402 208/331/402 205/357/402
f 224/320/232 204/332/234 146/321/403
f 220/333/404 150/201/404 149/207/404
f 221/285/236 218/335/238 162/286/405
f 238/313/406 150/337/406 222/338/406
f 126/183/407 222/338/407 121/156/407
f 130/150/241 246/290/243 221/285/408
f 121/156/409 220/339/409 129/352/409
f 138/184/245 239/311/247 224/320/410
f 120/153/411 241/306/411 229/330/411
f 135/172/412 223/340/412 137/161/412
f 160/157/250 227/314/252 119/253/413
f 161/168/253 234/293/255 128/166/414
f 137/161/415 219/341/415 117/162/415
f 127/259/416 244/322/416 232/302/416
f 136/159/417 224/320/417 231/304/417
f 140/170/259 235/291/261 118/171/418
f 133/165/419 236/328/419 135/172/419
f 131/175/420 237/282/420 116/176/420
f 119/253/421 238/313/421 126/183/421
f 115/167/265 228/312/267 239/311/422
f 161/168/268 229/309/270 240/308/423
f 125/152/424 230/284/424 241/306/424
f 134/342/425 231/304/425 233/297/425
f 160/157/273 232/302/275 242/301/426
f 123/164/427 243/317/427 133/165/427
f 124/173/428 233/343/428 244/322/428
f 128/166/429 245/299/429 123/164/429
f 132/149/279 235/291/281 246/290/430
f 117/154/282 228/312/284 139/180/431
f 122/179/432 221/285/432 230/284/432
f 116/176/286 225/281/288 140/170/433
f 129/182/434 226/278/434 131/175/434
