# Blender 4.3.2
# www.blender.org
mtllib sword.mtl
o 腕_右_円柱.001
v 0.111713 -0.850897 0.012026
v 0.111713 -1.850312 -0.006031
v 0.111713 -0.850897 -0.006031
v 0.111713 -1.850312 0.012026
v 0.083832 -1.850312 0.075330
v 0.083832 -0.850897 0.075329
v 0.111713 -0.850897 0.364696
v 0.111713 -0.620390 0.364696
v 0.055950 -0.620390 0.466887
v 0.055950 -0.850897 0.466887
v -0.055577 -0.620390 0.466887
v 0.000187 -0.850897 0.114378
v -0.027696 -0.850897 0.109717
v -0.055577 -0.850897 0.466887
v -0.055577 -0.850897 0.098806
v -0.111341 -0.620390 0.364696
v -0.111341 -0.850897 0.364696
v -0.083459 -0.850897 0.075329
v -0.111341 -0.850897 0.012026
v -0.083459 -1.850312 0.075330
v -0.111341 -1.850312 0.012026
v -0.111341 -1.850312 -0.006031
v -0.111341 -0.850897 -0.006031
v -0.111341 -0.850897 -0.357895
v -0.083459 -0.850897 -0.069334
v -0.083459 -1.850312 -0.069333
v -0.055577 -1.850312 0.098806
v -0.055577 -1.850312 -0.092810
v -0.027696 -1.850312 -0.103721
v -0.055577 -0.850897 -0.092810
v -0.027696 -0.850897 -0.103721
v -0.055577 -0.850897 -0.460387
v -0.055577 -0.620390 -0.460387
v -0.111341 -0.620390 -0.357895
v 0.055950 -0.620390 -0.460387
v 0.000187 -0.850897 -0.108383
v 0.055950 -0.850897 -0.460387
v 0.028068 -0.850897 -0.103721
v 0.028068 -1.850312 -0.103721
v 0.055949 -1.850312 -0.092810
v 0.055950 -0.850897 -0.092810
v 0.083832 -0.850897 -0.069334
v 0.083832 -1.850312 -0.069333
v 0.111713 -0.850897 -0.357895
v 0.111713 -0.620390 -0.357895
v 0.055949 -1.850312 0.098806
v 0.028068 -1.850312 0.109717
v 0.055950 -0.850897 0.098806
v 0.028068 -0.850897 0.109717
v 0.000187 -1.850312 0.114378
v -0.027696 -1.850312 0.109717
v 0.000187 -1.850312 -0.108383
v 0.014345 1.207097 0.207727
v -0.015492 -0.649067 0.207728
v 0.014345 -0.649067 0.207728
v -0.015492 1.207097 0.207727
v -0.000573 1.520815 0.004724
v 0.088972 -0.649067 0.106226
v 0.088972 1.207097 0.106225
v 0.088972 -0.649067 -0.096777
v 0.088972 1.207097 -0.096778
v -0.090119 -0.649067 -0.096777
v -0.090119 -0.649067 0.106226
v -0.090119 1.207097 -0.096778
v -0.090119 1.207097 0.106225
v -0.015492 1.207097 -0.198280
v 0.014345 -0.649067 -0.198279
v 0.014345 1.207097 -0.198280
v -0.015492 -0.649067 -0.198279
vn 1.0000 -0.0000 -0.0000
vn 0.9152 -0.0000 0.4031
vn 0.8771 -0.0000 0.4803
vn 0.8784 -0.0000 0.4779
vn 0.8773 -0.0000 0.4800
vn -0.9152 -0.0000 0.4031
vn -0.9816 0.1024 0.1611
vn -0.8390 0.2190 0.4981
vn -0.9766 0.2152 -0.0000
vn -0.6441 -0.0000 0.7649
vn -1.0000 -0.0000 -0.0000
vn -0.0000 -1.0000 -0.0000
vn -0.9152 -0.0000 -0.4031
vn -0.6441 -0.0000 -0.7649
vn -0.3644 -0.0000 -0.9312
vn -0.8784 -0.0000 -0.4779
vn -0.8795 -0.0003 -0.4760
vn -0.8767 -0.0000 -0.4810
vn -0.8800 -0.0000 -0.4749
vn -0.0000 1.0000 -0.0000
vn 0.1649 -0.0000 -0.9863
vn 0.3644 -0.0000 -0.9312
vn 0.6441 -0.0000 -0.7649
vn 0.6441 -0.0000 -0.7650
vn 0.8767 -0.0000 -0.4811
vn 0.8801 -0.0000 -0.4748
vn 0.9152 -0.0000 -0.4031
vn 0.3644 -0.0000 0.9312
vn 0.6441 -0.0000 0.7650
vn 0.6441 -0.0000 0.7649
vn 0.1649 -0.0000 0.9863
vn -0.1649 -0.0000 0.9863
vn -0.1649 -0.0000 -0.9863
vn -0.3644 -0.0000 0.9312
vn 0.0006 -0.0000 -1.0000
vn -0.0007 -0.0000 -1.0000
vn 0.0007 -0.0000 -1.0000
vn -0.8783 -0.0000 0.4780
vn -0.8773 -0.0000 0.4800
vn -0.8782 -0.0000 0.4782
vn -0.0000 -0.0000 1.0000
vn 0.8057 -0.0000 0.5924
vn 0.6761 0.2621 0.6886
vn 0.4467 0.4568 0.7693
vn -0.0000 0.5153 0.8570
vn 0.9816 0.1024 0.1610
vn -0.8057 -0.0000 0.5924
vn -0.7517 0.3599 0.5527
vn -0.7517 0.3599 -0.5527
vn -0.1952 0.4875 -0.8510
vn -0.6761 0.2621 -0.6886
vn -0.8057 -0.0000 -0.5924
vn -0.0000 0.5153 -0.8570
vn -0.0000 -0.0000 -1.0000
vn 0.8057 -0.0000 -0.5924
vn 0.7517 0.3599 -0.5527
vn 0.0038 -0.0000 1.0000
vn -0.0039 -0.0000 1.0000
vn 0.8784 -0.0000 0.4780
vn -0.8772 -0.0000 0.4801
vn 0.9766 0.2152 -0.0000
vn -0.0038 -0.0000 1.0000
vt 0.693857 0.092977
vt 0.693366 0.141970
vt 0.693366 0.092964
vt 0.693857 0.141983
vt 0.691463 0.093206
vt 0.691463 0.142211
vt 0.703427 0.153545
vt 0.683773 0.153012
vt 0.680632 0.142211
vt 0.683773 0.141709
vt 0.706149 0.235770
vt 0.704478 0.185673
vt 0.706149 0.185668
vt 0.231758 0.419793
vt 0.223870 0.441933
vt 0.221058 0.421921
vt 0.704478 0.235776
vt 0.702992 0.185674
vt 0.742683 0.103916
vt 0.742212 0.143575
vt 0.742212 0.104009
vt 0.736713 0.144065
vt 0.734422 0.144789
vt 0.736232 0.143968
vt 0.742683 0.143481
vt 0.744766 0.104403
vt 0.744766 0.143968
vt 0.738274 0.145565
vt 0.733673 0.145823
vt 0.738775 0.146851
vt 0.837091 0.143076
vt 0.836055 0.092969
vt 0.837091 0.092972
vt 0.738942 0.148070
vt 0.836055 0.143073
vt 0.834885 0.092967
vt 0.834885 0.143071
vt 0.753644 0.102637
vt 0.755400 0.094064
vt 0.755400 0.103189
vt 0.751864 0.102089
vt 0.751864 0.092964
vt 0.753644 0.093511
vt 0.760787 0.231151
vt 0.763555 0.228393
vt 0.771858 0.231309
vt 0.733010 0.096715
vt 0.833648 0.143069
vt 0.832311 0.143068
vt 0.832311 0.092965
vt 0.830907 0.092964
vt 0.830907 0.143067
vt 0.829369 0.092964
vt 0.829369 0.143067
vt 0.824771 0.268245
vt 0.821286 0.260385
vt 0.829419 0.261037
vt 0.822257 0.211714
vt 0.818586 0.200162
vt 0.822257 0.200158
vt 0.837531 0.261275
vt 0.842179 0.267645
vt 0.832883 0.268505
vt 0.733176 0.150464
vt 0.738279 0.151493
vt 0.737530 0.152527
vt 0.733677 0.151751
vt 0.827404 0.092967
vt 0.735720 0.153347
vt 0.738694 0.150391
vt 0.698808 0.235776
vt 0.697481 0.235774
vt 0.697481 0.185671
vt 0.733010 0.149245
vt 0.696212 0.185668
vt 0.696212 0.235771
vt 0.698808 0.185673
vt 0.700164 0.235777
vt 0.700164 0.185674
vt 0.733010 0.148060
vt 0.733258 0.146925
vt 0.738942 0.149256
vt 0.701564 0.235778
vt 0.833648 0.092966
vt 0.702992 0.235777
vt 0.701564 0.185675
vt 0.827404 0.143070
vt 0.827404 0.211720
vt 0.827404 0.200164
vt 0.811484 0.258665
vt 0.814713 0.270213
vt 0.811484 0.270221
vt 0.735239 0.153251
vt 0.187200 0.201907
vt 0.190178 0.389879
vt 0.187200 0.389877
vt 0.190178 0.201909
vt 0.196679 0.201935
vt 0.186587 0.421686
vt 0.196679 0.389905
vt 0.187266 0.421686
vt 0.318675 0.202059
vt 0.324252 0.386063
vt 0.313098 0.385760
vt 0.221058 0.273485
vt 0.106728 0.897077
vt 0.121804 0.901252
vt 0.106728 0.902647
vt 0.121804 0.895682
vt 0.106728 0.908217
vt 0.115522 0.912973
vt 0.113010 0.913205
vt 0.121804 0.906822
vt 0.178802 0.389893
vt 0.178802 0.201923
vt 0.196679 0.233677
vt 0.206615 0.201911
vt 0.201443 0.233701
vt 0.213377 0.418575
vt 0.207249 0.201912
vt 0.204225 0.233706
vt 0.204109 0.421676
vt 0.201327 0.421671
vt 0.213377 0.270139
vt 0.113010 0.890926
vt 0.115522 0.890693
vt 0.213377 0.233706
vt 0.213262 0.421676
vt 0.805973 0.258662
vt 0.805973 0.270218
vt 0.703427 0.142243
vt 0.680632 0.153514
vt 0.770474 0.229878
vt 0.771858 0.251028
vt 0.760787 0.250870
vt 0.769091 0.253778
vt 0.763555 0.253699
vt 0.733010 0.105840
vt 0.821286 0.269628
vt 0.820124 0.271456
vt 0.822448 0.258898
vt 0.827095 0.258468
vt 0.829419 0.270595
vt 0.828257 0.268983
vt 0.827095 0.268453
vt 0.822448 0.268883
vt 0.823610 0.268479
vt 0.825933 0.268264
vt 0.818586 0.211718
vt 0.841017 0.259892
vt 0.842179 0.258064
vt 0.839855 0.270636
vt 0.835207 0.271066
vt 0.832883 0.258925
vt 0.834045 0.260537
vt 0.835207 0.261067
vt 0.839855 0.260637
vt 0.838693 0.261041
vt 0.836369 0.261256
vt 0.814713 0.258657
vt 0.324252 0.202210
vt 0.231758 0.271357
vt 0.317770 0.418431
s 1
usemtl マテリアル.002
f 2/1/1 1/2/1 4/3/1
f 2/1/1 3/4/1 1/2/1
f 5/5/2 4/3/2 1/2/2
f 5/5/2 1/2/2 6/6/2
f 1/2/1 3/4/1 45/7/1
f 8/8/3 10/9/4 7/10/5
f 21/11/6 18/12/6 19/13/6
f 65/14/7 57/15/8 64/16/9
f 20/17/10 15/18/10 18/12/10
f 21/11/6 20/17/6 18/12/6
f 23/19/11 21/20/11 19/21/11
f 22/22/12 20/23/12 21/24/12
f 23/19/11 22/25/11 21/20/11
f 23/19/13 25/26/13 26/27/13
f 23/19/13 26/27/13 22/25/13
f 26/28/12 27/29/12 20/23/12
f 22/22/12 26/28/12 20/23/12
f 26/28/12 28/30/12 27/29/12
f 25/31/14 28/32/14 26/33/14
f 27/29/12 28/30/12 29/34/12
f 30/35/15 29/36/15 28/32/15
f 25/31/14 30/35/14 28/32/14
f 30/35/15 31/37/15 29/36/15
f 24/38/16 33/39/17 32/40/18
f 24/41/16 34/42/19 33/43/17
f 45/44/20 35/45/20 34/46/20
f 19/21/11 16/47/11 34/42/11
f 36/48/21 38/49/21 39/50/21
f 38/49/22 40/51/22 39/50/22
f 38/49/22 41/52/22 40/51/22
f 41/52/23 43/53/24 40/51/24
f 41/52/23 42/54/23 43/53/24
f 36/55/12 24/56/12 44/57/12
f 35/58/25 44/59/26 37/60/25
f 12/61/12 7/62/12 17/63/12
f 46/64/12 40/65/12 43/66/12
f 46/64/12 43/66/12 5/67/12
f 42/54/27 2/68/27 43/53/27
f 5/67/12 43/66/12 2/69/12
f 39/70/12 40/65/12 46/64/12
f 47/71/28 46/72/28 48/73/28
f 39/70/12 46/64/12 47/74/12
f 46/72/29 6/75/30 48/73/30
f 46/72/29 5/76/29 6/75/30
f 47/71/28 48/73/28 49/77/28
f 50/78/31 47/71/31 49/77/31
f 50/78/31 49/77/31 12/79/31
f 29/34/12 50/80/12 51/81/12
f 29/34/12 52/82/12 50/80/12
f 51/83/32 50/78/32 12/79/32
f 50/80/12 52/82/12 39/70/12
f 50/80/12 39/70/12 47/74/12
f 31/37/33 52/84/33 29/36/33
f 31/37/33 36/48/33 52/84/33
f 36/48/21 39/50/21 52/84/21
f 27/85/34 51/83/34 13/86/34
f 27/29/12 29/34/12 51/81/12
f 51/83/32 12/79/32 13/86/32
f 42/54/27 3/87/27 2/68/27
f 33/88/35 37/60/36 32/89/37
f 27/85/34 13/86/34 15/18/34
f 20/17/10 27/85/10 15/18/10
f 11/90/38 17/91/39 14/92/40
f 5/67/12 2/69/12 4/93/12
f 54/94/41 53/95/41 56/96/41
f 54/94/41 55/97/41 53/95/41
f 58/98/42 53/95/42 55/97/42
f 53/95/43 57/99/44 56/96/45
f 58/98/42 59/100/42 53/95/42
f 59/100/46 57/101/44 53/95/43
f 58/102/1 61/103/1 59/104/1
f 62/105/11 65/14/11 64/16/11
f 62/106/12 58/107/12 63/108/12
f 62/106/12 60/109/12 58/107/12
f 63/110/12 55/111/12 54/112/12
f 63/110/12 58/113/12 55/111/12
f 65/114/47 63/115/47 54/94/47
f 65/114/7 56/96/48 57/99/8
f 65/114/47 54/94/47 56/96/47
f 64/116/49 57/117/50 66/118/51
f 66/119/52 62/105/52 64/16/52
f 66/118/51 57/120/50 68/121/53
f 66/118/54 67/122/54 69/123/54
f 66/118/54 68/121/54 67/122/54
f 66/119/52 69/124/52 62/105/52
f 62/106/12 69/125/12 67/126/12
f 67/122/55 68/121/55 61/127/55
f 61/127/56 68/121/56 57/120/56
f 62/106/12 67/126/12 60/109/12
f 67/122/55 61/127/55 60/128/55
f 9/129/57 14/92/58 10/130/57
f 3/4/1 44/131/1 45/7/1
f 45/7/1 8/8/1 1/2/1
f 8/8/1 7/10/1 1/2/1
f 8/8/3 9/132/59 10/9/4
f 35/45/20 33/133/20 34/46/20
f 34/46/20 16/134/20 8/135/20
f 16/134/20 11/136/20 8/135/20
f 11/136/20 9/137/20 8/135/20
f 8/135/20 45/44/20 34/46/20
f 34/42/11 24/41/11 23/19/11
f 19/21/11 17/138/11 16/47/11
f 34/42/11 23/19/11 19/21/11
f 25/139/12 23/140/12 24/56/12
f 24/56/12 32/141/12 37/142/12
f 37/142/12 44/57/12 24/56/12
f 44/57/12 3/143/12 42/144/12
f 44/57/12 42/144/12 41/145/12
f 25/139/12 24/56/12 30/146/12
f 30/146/12 24/56/12 31/147/12
f 31/147/12 24/56/12 36/55/12
f 44/57/12 41/145/12 38/148/12
f 44/57/12 38/148/12 36/55/12
f 35/58/25 45/149/26 44/59/26
f 6/150/12 1/151/12 7/62/12
f 7/62/12 10/152/12 14/153/12
f 14/153/12 17/63/12 7/62/12
f 17/63/12 19/154/12 18/155/12
f 17/63/12 18/155/12 15/156/12
f 6/150/12 7/62/12 48/157/12
f 48/157/12 7/62/12 49/158/12
f 49/158/12 7/62/12 12/61/12
f 17/63/12 15/156/12 13/159/12
f 17/63/12 13/159/12 12/61/12
f 33/88/35 35/58/36 37/60/36
f 11/90/38 16/160/60 17/91/39
f 58/102/1 60/161/1 61/103/1
f 62/105/11 63/162/11 65/14/11
f 59/104/46 61/103/61 57/163/44
f 9/129/57 11/90/62 14/92/58
